{"asset":{"version":"2.0","generator":"Blockbench 5.0.2 glTF exporter"},"scenes":[{"nodes":[3],"name":"blockbench_export"}],"scene":0,"nodes":[{"name":"turret"},{"name":"base"},{"name":"root","children":[0,1]},{"translation":[0,-5,0],"name":"root","mesh":0,"children":[2],"skin":0}],"bufferViews":[{"buffer":0,"byteOffset":0,"byteLength":2064,"target":34962,"byteStride":12},{"buffer":0,"byteOffset":2064,"byteLength":2064,"target":34962,"byteStride":12},{"buffer":0,"byteOffset":4128,"byteLength":1376,"target":34962,"byteStride":8},{"buffer":0,"byteOffset":5504,"byteLength":1376,"target":34962,"byteStride":8},{"buffer":0,"byteOffset":6880,"byteLength":2752,"target":34962,"byteStride":16},{"buffer":0,"byteOffset":9632,"byteLength":516,"target":34963},{"buffer":0,"byteOffset":10148,"byteLength":192}],"buffers":[{"byteLength":10340,"uri":"data:application/octet-stream;base64,"}],"accessors":[{"bufferView":0,"componentType":5126,"count":172,"max":[6.25,15.625000953674316,6.25],"min":[-6.25,0,-6.25],"type":"VEC3"},{"bufferView":1,"componentType":5126,"count":172,"max":[1,1,1],"min":[-1,-1,-1],"type":"VEC3"},{"bufferView":2,"componentType":5126,"count":172,"max":[0.9895109534263611,0.984375],"min":[0,0],"type":"VEC2"},{"bufferView":3,"componentType":5123,"count":172,"max":[0,2,0,0],"min":[0,1,0,0],"type":"VEC4"},{"bufferView":4,"componentType":5126,"count":172,"max":[0,1,0,0],"min":[0,1,0,0],"type":"VEC4"},{"bufferView":5,"componentType":5123,"count":258,"max":[171],"min":[0],"type":"SCALAR"},{"bufferView":6,"componentType":5126,"count":3,"max":[1,0,0,0,0,1,0,0,0,0,1,0,0,0,0,1],"min":[1,0,0,0,0,1,0,0,0,0,1,0,0,0,0,1],"type":"MAT4"}],"materials":[{"pbrMetallicRoughness":{"metallicFactor":0,"roughnessFactor":1,"baseColorTexture":{"index":0}},"alphaMode":"MASK","alphaCutoff":0.05,"doubleSided":true}],"textures":[{"sampler":0,"source":0,"name":"va_vox_build_turret_1"}],"samplers":[{"magFilter":9728,"minFilter":9728,"wrapS":33071,"wrapT":33071}],"images":[{"mimeType":"image/png","name":"va_vox_build_turret_1.png","uri":"va_vox_build_turret_1.png"}],"meshes":[{"primitives":[{"mode":4,"attributes":{"POSITION":0,"NORMAL":1,"TEXCOORD_0":2,"JOINTS_0":3,"WEIGHTS_0":4},"indices":5,"material":0}]}],"skins":[{"inverseBindMatrices":6,"joints":[2,0,1],"skeleton":2}]}