{
  "asset": {
    "version": "2.0",
    "generator": "Blockbench 5.0.2 glTF exporter"
  },
  "scenes": [
    {
      "nodes": [
        3
      ],
      "name": "blockbench_export"
    }
  ],
  "scene": 0,
  "nodes": [
    {
      "translation": [
        0,
        3.125,
        0
      ],
      "name": "top"
    },
    {
      "translation": [
        0,
        2.5,
        0
      ],
      "name": "bottom"
    },
    {
      "name": "root",
      "children": [
        0,
        1
      ]
    },
    {
      "translation": [
        0,
        -1.875,
        0
      ],
      "name": "root",
      "mesh": 0,
      "children": [
        2
      ],
      "skin": 0
    }
  ],
  "bufferViews": [
    {
      "buffer": 0,
      "byteOffset": 0,
      "byteLength": 6960,
      "target": 34962,
      "byteStride": 12
    },
    {
      "buffer": 0,
      "byteOffset": 6960,
      "byteLength": 6960,
      "target": 34962,
      "byteStride": 12
    },
    {
      "buffer": 0,
      "byteOffset": 13920,
      "byteLength": 4640,
      "target": 34962,
      "byteStride": 8
    },
    {
      "buffer": 0,
      "byteOffset": 18560,
      "byteLength": 4640,
      "target": 34962,
      "byteStride": 8
    },
    {
      "buffer": 0,
      "byteOffset": 23200,
      "byteLength": 9280,
      "target": 34962,
      "byteStride": 16
    },
    {
      "buffer": 0,
      "byteOffset": 32480,
      "byteLength": 1740,
      "target": 34963
    },
    {
      "buffer": 0,
      "byteOffset": 34220,
      "byteLength": 192
    }
  ],
  "buffers": [
    {
      "byteLength": 34412,
      "uri": "data:application/octet-stream;base64,"
    }
  ],
  "accessors": [
    {
      "bufferView": 0,
      "componentType": 5126,
      "count": 580,
      "max": [
        6.25,
        9.0625,
        8.75
      ],
      "min": [
        -6.25,
        -3.125,
        -8.75
      ],
      "type": "VEC3"
    },
    {
      "bufferView": 1,
      "componentType": 5126,
      "count": 580,
      "max": [
        1,
        1,
        1
      ],
      "min": [
        -1,
        -1,
        -1
      ],
      "type": "VEC3"
    },
    {
      "bufferView": 2,
      "componentType": 5126,
      "count": 580,
      "max": [
        0.984375,
        1
      ],
      "min": [
        0,
        0
      ],
      "type": "VEC2"
    },
    {
      "bufferView": 3,
      "componentType": 5123,
      "count": 580,
      "max": [
        0,
        2,
        0,
        0
      ],
      "min": [
        0,
        1,
        0,
        0
      ],
      "type": "VEC4"
    },
    {
      "bufferView": 4,
      "componentType": 5126,
      "count": 580,
      "max": [
        0,
        1,
        0,
        0
      ],
      "min": [
        0,
        1,
        0,
        0
      ],
      "type": "VEC4"
    },
    {
      "bufferView": 5,
      "componentType": 5123,
      "count": 870,
      "max": [
        579
      ],
      "min": [
        0
      ],
      "type": "SCALAR"
    },
    {
      "bufferView": 6,
      "componentType": 5126,
      "count": 3,
      "max": [
        1,
        0,
        0,
        0,
        0,
        1,
        0,
        0,
        0,
        0,
        1,
        0,
        0,
        0,
        0,
        1
      ],
      "min": [
        1,
        0,
        0,
        0,
        0,
        1,
        0,
        0,
        0,
        0,
        1,
        0,
        0,
        -3.125,
        0,
        1
      ],
      "type": "MAT4"
    }
  ],
  "materials": [
    {
      "pbrMetallicRoughness": {
        "metallicFactor": 0,
        "roughnessFactor": 1,
        "baseColorFactor": [
          0.8,
          0.8,
          0.8,
          1
        ]
      },
      "alphaMode": "MASK",
      "alphaCutoff": 0.05,
      "doubleSided": true
    }
  ],
  "meshes": [
    {
      "primitives": [
        {
          "mode": 4,
          "attributes": {
            "POSITION": 0,
            "NORMAL": 1,
            "TEXCOORD_0": 2,
            "JOINTS_0": 3,
            "WEIGHTS_0": 4
          },
          "indices": 5,
          "material": 0
        }
      ]
    }
  ],
  "skins": [
    {
      "inverseBindMatrices": 6,
      "joints": [
        2,
        0,
        1
      ],
      "skeleton": 2
    }
  ]
}