{
  "asset": {
    "version": "2.0",
    "generator": "Blockbench 5.0.7 glTF exporter"
  },
  "scenes": [
    {
      "nodes": [
        6
      ],
      "name": "blockbench_export"
    }
  ],
  "scene": 0,
  "nodes": [
    {
      "translation": [
        -6.875,
        -5.625,
        0
      ],
      "name": "panel_1"
    },
    {
      "translation": [
        6.875,
        -5.625,
        0
      ],
      "name": "panel_2"
    },
    {
      "translation": [
        0,
        -5.625,
        6.875
      ],
      "name": "panel_3"
    },
    {
      "translation": [
        0,
        -5.625,
        -6.875
      ],
      "name": "panel_4"
    },
    {
      "name": "panels",
      "children": [
        0,
        1,
        2,
        3
      ]
    },
    {
      "name": "solar_col",
      "children": [
        4
      ]
    },
    {
      "translation": [
        0,
        2.5,
        0
      ],
      "name": "solar_col",
      "mesh": 0,
      "children": [
        5
      ],
      "skin": 0
    }
  ],
  "bufferViews": [
    {
      "buffer": 0,
      "byteOffset": 0,
      "byteLength": 11616,
      "target": 34962,
      "byteStride": 12
    },
    {
      "buffer": 0,
      "byteOffset": 11616,
      "byteLength": 11616,
      "target": 34962,
      "byteStride": 12
    },
    {
      "buffer": 0,
      "byteOffset": 23232,
      "byteLength": 7744,
      "target": 34962,
      "byteStride": 8
    },
    {
      "buffer": 0,
      "byteOffset": 30976,
      "byteLength": 7744,
      "target": 34962,
      "byteStride": 8
    },
    {
      "buffer": 0,
      "byteOffset": 38720,
      "byteLength": 15488,
      "target": 34962,
      "byteStride": 16
    },
    {
      "buffer": 0,
      "byteOffset": 54208,
      "byteLength": 2904,
      "target": 34963
    },
    {
      "buffer": 0,
      "byteOffset": 57112,
      "byteLength": 384
    },
    {
      "buffer": 0,
      "byteOffset": 57496,
      "byteLength": 4
    },
    {
      "buffer": 0,
      "byteOffset": 57500,
      "byteLength": 16
    },
    {
      "buffer": 0,
      "byteOffset": 57516,
      "byteLength": 240
    },
    {
      "buffer": 0,
      "byteOffset": 57756,
      "byteLength": 960
    },
    {
      "buffer": 0,
      "byteOffset": 58716,
      "byteLength": 240
    },
    {
      "buffer": 0,
      "byteOffset": 58956,
      "byteLength": 960
    },
    {
      "buffer": 0,
      "byteOffset": 59916,
      "byteLength": 240
    },
    {
      "buffer": 0,
      "byteOffset": 60156,
      "byteLength": 960
    },
    {
      "buffer": 0,
      "byteOffset": 61116,
      "byteLength": 240
    },
    {
      "buffer": 0,
      "byteOffset": 61356,
      "byteLength": 960
    }
  ],
  "buffers": [
    {
      "byteLength": 62316,
      "uri": "data:application/octet-stream;base64,"
    }
  ],
  "accessors": [
    {
      "bufferView": 0,
      "componentType": 5126,
      "count": 968,
      "max": [
        8.125,
        6.875,
        8.125
      ],
      "min": [
        -8.125,
        -7.5,
        -8.125
      ],
      "type": "VEC3"
    },
    {
      "bufferView": 1,
      "componentType": 5126,
      "count": 968,
      "max": [
        1,
        1,
        1
      ],
      "min": [
        -1,
        -1,
        -1
      ],
      "type": "VEC3"
    },
    {
      "bufferView": 2,
      "componentType": 5126,
      "count": 968,
      "max": [
        1,
        0.9453125
      ],
      "min": [
        0,
        0
      ],
      "type": "VEC2"
    },
    {
      "bufferView": 3,
      "componentType": 5123,
      "count": 968,
      "max": [
        0,
        5,
        0,
        0
      ],
      "min": [
        0,
        0,
        0,
        0
      ],
      "type": "VEC4"
    },
    {
      "bufferView": 4,
      "componentType": 5126,
      "count": 968,
      "max": [
        0,
        1,
        0,
        0
      ],
      "min": [
        0,
        1,
        0,
        0
      ],
      "type": "VEC4"
    },
    {
      "bufferView": 5,
      "componentType": 5123,
      "count": 1452,
      "max": [
        967
      ],
      "min": [
        0
      ],
      "type": "SCALAR"
    },
    {
      "bufferView": 6,
      "componentType": 5126,
      "count": 6,
      "max": [
        1,
        0,
        0,
        0,
        0,
        1,
        0,
        0,
        0,
        0,
        1,
        0,
        6.875,
        5.625,
        6.875,
        1
      ],
      "min": [
        1,
        0,
        0,
        0,
        0,
        1,
        0,
        0,
        0,
        0,
        1,
        0,
        -6.875,
        0,
        -6.875,
        1
      ],
      "type": "MAT4"
    },
    {
      "bufferView": 7,
      "componentType": 5126,
      "count": 1,
      "max": [
        0
      ],
      "min": [
        0
      ],
      "type": "SCALAR"
    },
    {
      "bufferView": 8,
      "componentType": 5126,
      "count": 1,
      "max": [
        0,
        0,
        0,
        1
      ],
      "min": [
        0,
        0,
        0,
        1
      ],
      "type": "VEC4"
    },
    {
      "bufferView": 9,
      "componentType": 5126,
      "count": 60,
      "max": [
        4.5
      ],
      "min": [
        0
      ],
      "type": "SCALAR"
    },
    {
      "bufferView": 10,
      "componentType": 5126,
      "count": 60,
      "max": [
        0,
        0,
        0.7071067690849304,
        1
      ],
      "min": [
        0,
        0,
        0,
        0.7071067690849304
      ],
      "type": "VEC4"
    },
    {
      "bufferView": 11,
      "componentType": 5126,
      "count": 60,
      "max": [
        4.5
      ],
      "min": [
        0
      ],
      "type": "SCALAR"
    },
    {
      "bufferView": 12,
      "componentType": 5126,
      "count": 60,
      "max": [
        0,
        0,
        0,
        1
      ],
      "min": [
        0,
        0,
        -0.7071067690849304,
        0.7071067690849304
      ],
      "type": "VEC4"
    },
    {
      "bufferView": 13,
      "componentType": 5126,
      "count": 60,
      "max": [
        4.5
      ],
      "min": [
        0
      ],
      "type": "SCALAR"
    },
    {
      "bufferView": 14,
      "componentType": 5126,
      "count": 60,
      "max": [
        0.7071067690849304,
        0,
        0,
        1
      ],
      "min": [
        0,
        0,
        0,
        0.7071067690849304
      ],
      "type": "VEC4"
    },
    {
      "bufferView": 15,
      "componentType": 5126,
      "count": 60,
      "max": [
        4.5
      ],
      "min": [
        0
      ],
      "type": "SCALAR"
    },
    {
      "bufferView": 16,
      "componentType": 5126,
      "count": 60,
      "max": [
        0,
        0,
        0,
        1
      ],
      "min": [
        -0.7071067690849304,
        0,
        0,
        0.7071067690849304
      ],
      "type": "VEC4"
    }
  ],
  "materials": [
    {
      "pbrMetallicRoughness": {
        "metallicFactor": 0,
        "roughnessFactor": 1,
        "baseColorFactor": [
          0.8,
          0.8,
          0.8,
          1
        ]
      },
      "alphaMode": "MASK",
      "alphaCutoff": 0.05,
      "doubleSided": true
    }
  ],
  "meshes": [
    {
      "primitives": [
        {
          "mode": 4,
          "attributes": {
            "POSITION": 0,
            "NORMAL": 1,
            "TEXCOORD_0": 2,
            "JOINTS_0": 3,
            "WEIGHTS_0": 4
          },
          "indices": 5,
          "material": 0
        }
      ]
    }
  ],
  "skins": [
    {
      "inverseBindMatrices": 6,
      "joints": [
        5,
        4,
        0,
        1,
        2,
        3
      ],
      "skeleton": 5
    }
  ],
  "animations": [
    {
      "name": "open",
      "samplers": [
        {
          "input": 7,
          "output": 8,
          "interpolation": "LINEAR"
        },
        {
          "input": 9,
          "output": 10,
          "interpolation": "LINEAR"
        },
        {
          "input": 11,
          "output": 12,
          "interpolation": "LINEAR"
        },
        {
          "input": 13,
          "output": 14,
          "interpolation": "LINEAR"
        },
        {
          "input": 15,
          "output": 16,
          "interpolation": "LINEAR"
        }
      ],
      "channels": [
        {
          "sampler": 0,
          "target": {
            "node": 5,
            "path": "rotation"
          }
        },
        {
          "sampler": 1,
          "target": {
            "node": 0,
            "path": "rotation"
          }
        },
        {
          "sampler": 2,
          "target": {
            "node": 1,
            "path": "rotation"
          }
        },
        {
          "sampler": 3,
          "target": {
            "node": 2,
            "path": "rotation"
          }
        },
        {
          "sampler": 4,
          "target": {
            "node": 3,
            "path": "rotation"
          }
        }
      ]
    }
  ]
}