{"asset":{"version":"2.0","generator":"Blockbench 5.0.2 glTF exporter"},"scenes":[{"nodes":[2],"name":"blockbench_export"}],"scene":0,"nodes":[{"translation":[0,31.5625,0],"name":"turret"},{"name":"laser_tower","children":[0]},{"translation":[0,-5,0],"name":"laser_tower","mesh":0,"children":[1],"skin":0}],"bufferViews":[{"buffer":0,"byteOffset":0,"byteLength":7392,"target":34962,"byteStride":12},{"buffer":0,"byteOffset":7392,"byteLength":7392,"target":34962,"byteStride":12},{"buffer":0,"byteOffset":14784,"byteLength":4928,"target":34962,"byteStride":8},{"buffer":0,"byteOffset":19712,"byteLength":4928,"target":34962,"byteStride":8},{"buffer":0,"byteOffset":24640,"byteLength":9856,"target":34962,"byteStride":16},{"buffer":0,"byteOffset":34496,"byteLength":1800,"target":34963},{"buffer":0,"byteOffset":36296,"byteLength":128}],"buffers":[{"byteLength":36424,"uri":"data:application/octet-stream;base64,"}],"accessors":[{"bufferView":0,"componentType":5126,"count":616,"max":[8.125,35.3125,15],"min":[-8.125,0,-6.805902481079102],"type":"VEC3"},{"bufferView":1,"componentType":5126,"count":616,"max":[1,1,1],"min":[-1,-1,-1],"type":"VEC3"},{"bufferView":2,"componentType":5126,"count":616,"max":[0.640625,0.640625],"min":[0,0],"type":"VEC2"},{"bufferView":3,"componentType":5123,"count":616,"max":[0,1,0,0],"min":[0,0,0,0],"type":"VEC4"},{"bufferView":4,"componentType":5126,"count":616,"max":[0,1,0,0],"min":[0,1,0,0],"type":"VEC4"},{"bufferView":5,"componentType":5123,"count":900,"max":[615],"min":[0],"type":"SCALAR"},{"bufferView":6,"componentType":5126,"count":2,"max":[1,0,0,0,0,1,0,0,0,0,1,0,0,0,0,1],"min":[1,0,0,0,0,1,0,0,0,0,1,0,0,-31.5625,0,1],"type":"MAT4"}],"materials":[{"pbrMetallicRoughness":{"metallicFactor":0,"roughnessFactor":1,"baseColorTexture":{"index":0}},"alphaMode":"MASK","alphaCutoff":0.05,"doubleSided":true}],"textures":[{"sampler":0,"source":0,"name":"va_vox_heavy_laser_tower"}],"samplers":[{"magFilter":9728,"minFilter":9728,"wrapS":33071,"wrapT":33071}],"images":[{"mimeType":"image/png","name":"va_vox_heavy_laser_tower.png","uri":"va_vox_heavy_laser_tower.png"}],"meshes":[{"primitives":[{"mode":4,"attributes":{"POSITION":0,"NORMAL":1,"TEXCOORD_0":2,"JOINTS_0":3,"WEIGHTS_0":4},"indices":5,"material":0}]}],"skins":[{"inverseBindMatrices":6,"joints":[1,0],"skeleton":1}]}