{"asset":{"version":"2.0","generator":"Blockbench 5.0.4 glTF exporter"},"scenes":[{"nodes":[3],"name":"blockbench_export"}],"scene":0,"nodes":[{"rotation":[2.1163626406917047e-15,2.929339445412986e-31,2.079342301519832e-31,1],"translation":[0,13.125,0],"name":"gun"},{"translation":[0,5,0],"name":"turret","children":[0]},{"name":"wall","children":[1]},{"translation":[0,-5,0],"name":"wall","mesh":0,"children":[2],"skin":0}],"bufferViews":[{"buffer":0,"byteOffset":0,"byteLength":4176,"target":34962,"byteStride":12},{"buffer":0,"byteOffset":4176,"byteLength":4176,"target":34962,"byteStride":12},{"buffer":0,"byteOffset":8352,"byteLength":2784,"target":34962,"byteStride":8},{"buffer":0,"byteOffset":11136,"byteLength":2784,"target":34962,"byteStride":8},{"buffer":0,"byteOffset":13920,"byteLength":5568,"target":34962,"byteStride":16},{"buffer":0,"byteOffset":19488,"byteLength":1044,"target":34963},{"buffer":0,"byteOffset":20532,"byteLength":192}],"buffers":[{"byteLength":20724,"uri":"data:application/octet-stream;base64,"}],"accessors":[{"bufferView":0,"componentType":5126,"count":348,"max":[7.5,26.875,8.75],"min":[-7.5,-9.375,-7.5],"type":"VEC3"},{"bufferView":1,"componentType":5126,"count":348,"max":[1,1,1],"min":[-1,-1,-1],"type":"VEC3"},{"bufferView":2,"componentType":5126,"count":348,"max":[0.71875,0.734375],"min":[0,0],"type":"VEC2"},{"bufferView":3,"componentType":5123,"count":348,"max":[0,2,0,0],"min":[0,0,0,0],"type":"VEC4"},{"bufferView":4,"componentType":5126,"count":348,"max":[0,1,0,0],"min":[0,1,0,0],"type":"VEC4"},{"bufferView":5,"componentType":5123,"count":522,"max":[347],"min":[0],"type":"SCALAR"},{"bufferView":6,"componentType":5126,"count":3,"max":[1,0,5.8586788908259715e-31,0,4.158684603039663e-31,1,0,0,0,4.232725281383409e-15,1,0,0,0,7.67181457250743e-14,1],"min":[1,-4.158684603039663e-31,0,0,0,1,-4.232725281383409e-15,0,-5.8586788908259715e-31,0,1,0,-7.53761584300939e-30,-18.125,0,1],"type":"MAT4"}],"materials":[{"pbrMetallicRoughness":{"metallicFactor":0,"roughnessFactor":1,"baseColorTexture":{"index":0}},"alphaMode":"MASK","alphaCutoff":0.05,"doubleSided":true}],"textures":[{"sampler":0,"source":0,"name":"va_vox_pop_up_turret"}],"samplers":[{"magFilter":9728,"minFilter":9728,"wrapS":33071,"wrapT":33071}],"images":[{"mimeType":"image/png","name":"va_vox_pop_up_turret.png","uri":"va_vox_pop_up_turret.png"}],"meshes":[{"primitives":[{"mode":4,"attributes":{"POSITION":0,"NORMAL":1,"TEXCOORD_0":2,"JOINTS_0":3,"WEIGHTS_0":4},"indices":5,"material":0}]}],"skins":[{"inverseBindMatrices":6,"joints":[2,1,0],"skeleton":2}]}