{"asset":{"version":"2.0","generator":"Blockbench 5.0.2 glTF exporter"},"scenes":[{"nodes":[2],"name":"blockbench_export"}],"scene":0,"nodes":[{"translation":[-6.875,13.125,0],"name":"spikes"},{"name":"wall","children":[0]},{"translation":[0,-5,0],"name":"wall","mesh":0,"children":[1],"skin":0}],"bufferViews":[{"buffer":0,"byteOffset":0,"byteLength":1344,"target":34962,"byteStride":12},{"buffer":0,"byteOffset":1344,"byteLength":1344,"target":34962,"byteStride":12},{"buffer":0,"byteOffset":2688,"byteLength":896,"target":34962,"byteStride":8},{"buffer":0,"byteOffset":3584,"byteLength":896,"target":34962,"byteStride":8},{"buffer":0,"byteOffset":4480,"byteLength":1792,"target":34962,"byteStride":16},{"buffer":0,"byteOffset":6272,"byteLength":324,"target":34963},{"buffer":0,"byteOffset":6596,"byteLength":128}],"buffers":[{"byteLength":6724,"uri":"data:application/octet-stream;base64,"}],"accessors":[{"bufferView":0,"componentType":5126,"count":112,"max":[15.271894454956055,21.521900177001953,15.27190113067627],"min":[-15.271892547607422,0,-15.271888732910156],"type":"VEC3"},{"bufferView":1,"componentType":5126,"count":112,"max":[1,0.7071074843406677,1],"min":[-1,-1,-1],"type":"VEC3"},{"bufferView":2,"componentType":5126,"count":112,"max":[0.7421875,0.7890625],"min":[0,0],"type":"VEC2"},{"bufferView":3,"componentType":5123,"count":112,"max":[0,1,0,0],"min":[0,0,0,0],"type":"VEC4"},{"bufferView":4,"componentType":5126,"count":112,"max":[0,1,0,0],"min":[0,1,0,0],"type":"VEC4"},{"bufferView":5,"componentType":5123,"count":162,"max":[111],"min":[0],"type":"SCALAR"},{"bufferView":6,"componentType":5126,"count":2,"max":[1,0,0,0,0,1,0,0,0,0,1,0,6.875,0,0,1],"min":[1,0,0,0,0,1,0,0,0,0,1,0,0,-13.125,0,1],"type":"MAT4"}],"materials":[{"pbrMetallicRoughness":{"metallicFactor":0,"roughnessFactor":1,"baseColorTexture":{"index":0}},"alphaMode":"MASK","alphaCutoff":0.05,"doubleSided":true}],"textures":[{"sampler":0,"source":0,"name":"va_vox_wall_1"}],"samplers":[{"magFilter":9728,"minFilter":9728,"wrapS":33071,"wrapT":33071}],"images":[{"mimeType":"image/png","name":"va_vox_wall_1.png","uri":"va_vox_wall_1.png"}],"meshes":[{"primitives":[{"mode":4,"attributes":{"POSITION":0,"NORMAL":1,"TEXCOORD_0":2,"JOINTS_0":3,"WEIGHTS_0":4},"indices":5,"material":0}]}],"skins":[{"inverseBindMatrices":6,"joints":[1,0],"skeleton":1}]}