{
  "asset": {
    "version": "2.0",
    "generator": "Blockbench 5.0.2 glTF exporter"
  },
  "scenes": [
    {
      "nodes": [
        4
      ],
      "name": "blockbench_export"
    }
  ],
  "scene": 0,
  "nodes": [
    {
      "rotation": [
        -6.123233995736766e-17,
        1,
        -6.123233995736766e-17,
        3.749399456654644e-33
      ],
      "translation": [
        0,
        1.875,
        3.125
      ],
      "name": "build_plate"
    },
    {
      "translation": [
        -15,
        9.6875,
        3.125
      ],
      "name": "left_turret"
    },
    {
      "translation": [
        14.375,
        9.375,
        3.125
      ],
      "name": "right_turret"
    },
    {
      "name": "bot_lab",
      "children": [
        0,
        1,
        2
      ]
    },
    {
      "translation": [
        0,
        -5,
        5
      ],
      "name": "bot_lab",
      "mesh": 0,
      "children": [
        3
      ],
      "skin": 0
    }
  ],
  "bufferViews": [
    {
      "buffer": 0,
      "byteOffset": 0,
      "byteLength": 7728,
      "target": 34962,
      "byteStride": 12
    },
    {
      "buffer": 0,
      "byteOffset": 7728,
      "byteLength": 7728,
      "target": 34962,
      "byteStride": 12
    },
    {
      "buffer": 0,
      "byteOffset": 15456,
      "byteLength": 5152,
      "target": 34962,
      "byteStride": 8
    },
    {
      "buffer": 0,
      "byteOffset": 20608,
      "byteLength": 5152,
      "target": 34962,
      "byteStride": 8
    },
    {
      "buffer": 0,
      "byteOffset": 25760,
      "byteLength": 10304,
      "target": 34962,
      "byteStride": 16
    },
    {
      "buffer": 0,
      "byteOffset": 36064,
      "byteLength": 1932,
      "target": 34963
    },
    {
      "buffer": 0,
      "byteOffset": 37996,
      "byteLength": 256
    }
  ],
  "buffers": [
    {
      "byteLength": 38252,
      "uri": "data:application/octet-stream;base64,"
    }
  ],
  "accessors": [
    {
      "bufferView": 0,
      "componentType": 5126,
      "count": 644,
      "max": [
        20,
        18.125,
        15
      ],
      "min": [
        -20,
        0,
        -25
      ],
      "type": "VEC3"
    },
    {
      "bufferView": 1,
      "componentType": 5126,
      "count": 644,
      "max": [
        1,
        1,
        1
      ],
      "min": [
        -1,
        -1,
        -1
      ],
      "type": "VEC3"
    },
    {
      "bufferView": 2,
      "componentType": 5126,
      "count": 644,
      "max": [
        0.8515625,
        0.8515625
      ],
      "min": [
        0,
        0
      ],
      "type": "VEC2"
    },
    {
      "bufferView": 3,
      "componentType": 5123,
      "count": 644,
      "max": [
        0,
        3,
        0,
        0
      ],
      "min": [
        0,
        0,
        0,
        0
      ],
      "type": "VEC4"
    },
    {
      "bufferView": 4,
      "componentType": 5126,
      "count": 644,
      "max": [
        0,
        1,
        0,
        0
      ],
      "min": [
        0,
        1,
        0,
        0
      ],
      "type": "VEC4"
    },
    {
      "bufferView": 5,
      "componentType": 5123,
      "count": 966,
      "max": [
        643
      ],
      "min": [
        0
      ],
      "type": "SCALAR"
    },
    {
      "bufferView": 6,
      "componentType": 5126,
      "count": 4,
      "max": [
        1,
        0,
        1.4997597572211942e-32,
        0,
        0,
        1,
        0,
        0,
        0,
        0,
        1,
        0,
        15,
        0,
        3.125,
        1
      ],
      "min": [
        -1,
        -1.2246468525851679e-16,
        0,
        0,
        -1.2246468525851679e-16,
        1,
        -1.2246468525851679e-16,
        0,
        0,
        -1.2246468525851679e-16,
        -1,
        0,
        -14.375,
        -9.6875,
        -3.125,
        1
      ],
      "type": "MAT4"
    }
  ],
  "materials": [
    {
      "pbrMetallicRoughness": {
        "metallicFactor": 0,
        "roughnessFactor": 1,
        "baseColorFactor": [
          0.8,
          0.8,
          0.8,
          1
        ]
      },
      "alphaMode": "MASK",
      "alphaCutoff": 0.05,
      "doubleSided": true
    }
  ],
  "meshes": [
    {
      "primitives": [
        {
          "mode": 4,
          "attributes": {
            "POSITION": 0,
            "NORMAL": 1,
            "TEXCOORD_0": 2,
            "JOINTS_0": 3,
            "WEIGHTS_0": 4
          },
          "indices": 5,
          "material": 0
        }
      ]
    }
  ],
  "skins": [
    {
      "inverseBindMatrices": 6,
      "joints": [
        3,
        0,
        1,
        2
      ],
      "skeleton": 3
    }
  ]
}