{
  "asset": {
    "version": "2.0",
    "generator": "Blockbench 5.0.2 glTF exporter"
  },
  "scenes": [
    {
      "nodes": [
        2
      ],
      "name": "blockbench_export"
    }
  ],
  "scene": 0,
  "nodes": [
    {
      "translation": [
        0,
        27.5,
        0
      ],
      "name": "turret"
    },
    {
      "name": "laser_tower",
      "children": [
        0
      ]
    },
    {
      "translation": [
        0,
        -5,
        0
      ],
      "name": "laser_tower",
      "mesh": 0,
      "children": [
        1
      ],
      "skin": 0
    }
  ],
  "bufferViews": [
    {
      "buffer": 0,
      "byteOffset": 0,
      "byteLength": 5856,
      "target": 34962,
      "byteStride": 12
    },
    {
      "buffer": 0,
      "byteOffset": 5856,
      "byteLength": 5856,
      "target": 34962,
      "byteStride": 12
    },
    {
      "buffer": 0,
      "byteOffset": 11712,
      "byteLength": 3904,
      "target": 34962,
      "byteStride": 8
    },
    {
      "buffer": 0,
      "byteOffset": 15616,
      "byteLength": 3904,
      "target": 34962,
      "byteStride": 8
    },
    {
      "buffer": 0,
      "byteOffset": 19520,
      "byteLength": 7808,
      "target": 34962,
      "byteStride": 16
    },
    {
      "buffer": 0,
      "byteOffset": 27328,
      "byteLength": 1416,
      "target": 34963
    },
    {
      "buffer": 0,
      "byteOffset": 28744,
      "byteLength": 128
    }
  ],
  "buffers": [
    {
      "byteLength": 28872,
      "uri": "data:application/octet-stream;base64,"
    }
  ],
  "accessors": [
    {
      "bufferView": 0,
      "componentType": 5126,
      "count": 488,
      "max": [
        6.25,
        30.625,
        15
      ],
      "min": [
        -6.25,
        0,
        -6.25
      ],
      "type": "VEC3"
    },
    {
      "bufferView": 1,
      "componentType": 5126,
      "count": 488,
      "max": [
        1,
        1,
        1
      ],
      "min": [
        -1,
        -1,
        -1
      ],
      "type": "VEC3"
    },
    {
      "bufferView": 2,
      "componentType": 5126,
      "count": 488,
      "max": [
        0.5625,
        0.5
      ],
      "min": [
        0,
        0
      ],
      "type": "VEC2"
    },
    {
      "bufferView": 3,
      "componentType": 5123,
      "count": 488,
      "max": [
        0,
        1,
        0,
        0
      ],
      "min": [
        0,
        0,
        0,
        0
      ],
      "type": "VEC4"
    },
    {
      "bufferView": 4,
      "componentType": 5126,
      "count": 488,
      "max": [
        0,
        1,
        0,
        0
      ],
      "min": [
        0,
        1,
        0,
        0
      ],
      "type": "VEC4"
    },
    {
      "bufferView": 5,
      "componentType": 5123,
      "count": 708,
      "max": [
        487
      ],
      "min": [
        0
      ],
      "type": "SCALAR"
    },
    {
      "bufferView": 6,
      "componentType": 5126,
      "count": 2,
      "max": [
        1,
        0,
        0,
        0,
        0,
        1,
        0,
        0,
        0,
        0,
        1,
        0,
        0,
        0,
        0,
        1
      ],
      "min": [
        1,
        0,
        0,
        0,
        0,
        1,
        0,
        0,
        0,
        0,
        1,
        0,
        0,
        -27.5,
        0,
        1
      ],
      "type": "MAT4"
    }
  ],
  "materials": [
    {
      "pbrMetallicRoughness": {
        "metallicFactor": 0,
        "roughnessFactor": 1,
        "baseColorFactor": [
          0.8,
          0.8,
          0.8,
          1
        ]
      },
      "alphaMode": "MASK",
      "alphaCutoff": 0.05,
      "doubleSided": true
    }
  ],
  "meshes": [
    {
      "primitives": [
        {
          "mode": 4,
          "attributes": {
            "POSITION": 0,
            "NORMAL": 1,
            "TEXCOORD_0": 2,
            "JOINTS_0": 3,
            "WEIGHTS_0": 4
          },
          "indices": 5,
          "material": 0
        }
      ]
    }
  ],
  "skins": [
    {
      "inverseBindMatrices": 6,
      "joints": [
        1,
        0
      ],
      "skeleton": 1
    }
  ]
}