{"asset":{"version":"2.0","generator":"Blockbench 5.0.2 glTF exporter"},"scenes":[{"nodes":[5],"name":"blockbench_export"}],"scene":0,"nodes":[{"translation":[-5,0,8.75],"name":"barrel_left"},{"translation":[5,0,8.75],"name":"barrel_right"},{"translation":[0,7.5,0.625],"name":"barrels","children":[0,1]},{"translation":[0,3.125,0],"name":"turret","children":[2]},{"name":"plasma_artillery","children":[3]},{"name":"plasma_artillery","mesh":0,"children":[4],"skin":0}],"bufferViews":[{"buffer":0,"byteOffset":0,"byteLength":8328,"target":34962,"byteStride":12},{"buffer":0,"byteOffset":8328,"byteLength":8328,"target":34962,"byteStride":12},{"buffer":0,"byteOffset":16656,"byteLength":5552,"target":34962,"byteStride":8},{"buffer":0,"byteOffset":22208,"byteLength":5552,"target":34962,"byteStride":8},{"buffer":0,"byteOffset":27760,"byteLength":11104,"target":34962,"byteStride":16},{"buffer":0,"byteOffset":38864,"byteLength":2076,"target":34963},{"buffer":0,"byteOffset":40940,"byteLength":320}],"buffers":[{"byteLength":41260,"uri":"data:application/octet-stream;base64,"}],"accessors":[{"bufferView":0,"componentType":5126,"count":694,"max":[11.25,15,15.625],"min":[-11.325825691223145,-5,-11.25],"type":"VEC3"},{"bufferView":1,"componentType":5126,"count":694,"max":[1,1,1],"min":[-1,-1,-1],"type":"VEC3"},{"bufferView":2,"componentType":5126,"count":694,"max":[0.8671875,0.8671875],"min":[0,0],"type":"VEC2"},{"bufferView":3,"componentType":5123,"count":694,"max":[0,4,0,0],"min":[0,0,0,0],"type":"VEC4"},{"bufferView":4,"componentType":5126,"count":694,"max":[0,1,0,0],"min":[0,1,0,0],"type":"VEC4"},{"bufferView":5,"componentType":5123,"count":1038,"max":[693],"min":[0],"type":"SCALAR"},{"bufferView":6,"componentType":5126,"count":5,"max":[1,0,0,0,0,1,0,0,0,0,1,0,5,0,0,1],"min":[1,0,0,0,0,1,0,0,0,0,1,0,-5,-10.625,-9.375,1],"type":"MAT4"}],"materials":[{"pbrMetallicRoughness":{"metallicFactor":0,"roughnessFactor":1,"baseColorTexture":{"index":0}},"alphaMode":"MASK","alphaCutoff":0.05,"doubleSided":true}],"textures":[{"sampler":0,"source":0,"name":"va_vox_medium_plasma_artillery"}],"samplers":[{"magFilter":9728,"minFilter":9728,"wrapS":33071,"wrapT":33071}],"images":[{"mimeType":"image/png","name":"va_vox_medium_plasma_artillery.png","uri":"va_vox_medium_plasma_artillery.png"}],"meshes":[{"primitives":[{"mode":4,"attributes":{"POSITION":0,"NORMAL":1,"TEXCOORD_0":2,"JOINTS_0":3,"WEIGHTS_0":4},"indices":5,"material":0}]}],"skins":[{"inverseBindMatrices":6,"joints":[4,3,2,0,1],"skeleton":4}]}