{
  "asset": {
    "version": "2.0",
    "generator": "Blockbench 5.0.2 glTF exporter"
  },
  "scenes": [
    {
      "nodes": [
        2
      ],
      "name": "blockbench_export"
    }
  ],
  "scene": 0,
  "nodes": [
    {
      "translation": [
        -4.023510595866648e-16,
        4.375,
        -1.9199437076068505e-16
      ],
      "name": "rotor"
    },
    {
      "name": "geo_plant",
      "children": [
        0
      ]
    },
    {
      "translation": [
        0,
        -5,
        0
      ],
      "name": "geo_plant",
      "mesh": 0,
      "children": [
        1
      ],
      "skin": 0
    }
  ],
  "bufferViews": [
    {
      "buffer": 0,
      "byteOffset": 0,
      "byteLength": 18144,
      "target": 34962,
      "byteStride": 12
    },
    {
      "buffer": 0,
      "byteOffset": 18144,
      "byteLength": 18144,
      "target": 34962,
      "byteStride": 12
    },
    {
      "buffer": 0,
      "byteOffset": 36288,
      "byteLength": 12096,
      "target": 34962,
      "byteStride": 8
    },
    {
      "buffer": 0,
      "byteOffset": 48384,
      "byteLength": 12096,
      "target": 34962,
      "byteStride": 8
    },
    {
      "buffer": 0,
      "byteOffset": 60480,
      "byteLength": 24192,
      "target": 34962,
      "byteStride": 16
    },
    {
      "buffer": 0,
      "byteOffset": 84672,
      "byteLength": 4488,
      "target": 34963
    },
    {
      "buffer": 0,
      "byteOffset": 89160,
      "byteLength": 128
    }
  ],
  "buffers": [
    {
      "byteLength": 89288,
      "uri": "data:application/octet-stream;base64,"
    }
  ],
  "accessors": [
    {
      "bufferView": 0,
      "componentType": 5126,
      "count": 1512,
      "max": [
        10.625,
        20,
        10.625
      ],
      "min": [
        -10.625,
        0,
        -10.625
      ],
      "type": "VEC3"
    },
    {
      "bufferView": 1,
      "componentType": 5126,
      "count": 1512,
      "max": [
        1,
        1,
        1
      ],
      "min": [
        -1,
        -1,
        -1
      ],
      "type": "VEC3"
    },
    {
      "bufferView": 2,
      "componentType": 5126,
      "count": 1512,
      "max": [
        0.9453125,
        0.9296875
      ],
      "min": [
        0,
        0
      ],
      "type": "VEC2"
    },
    {
      "bufferView": 3,
      "componentType": 5123,
      "count": 1512,
      "max": [
        0,
        1,
        0,
        0
      ],
      "min": [
        0,
        0,
        0,
        0
      ],
      "type": "VEC4"
    },
    {
      "bufferView": 4,
      "componentType": 5126,
      "count": 1512,
      "max": [
        0,
        1,
        0,
        0
      ],
      "min": [
        0,
        1,
        0,
        0
      ],
      "type": "VEC4"
    },
    {
      "bufferView": 5,
      "componentType": 5123,
      "count": 2244,
      "max": [
        1511
      ],
      "min": [
        0
      ],
      "type": "SCALAR"
    },
    {
      "bufferView": 6,
      "componentType": 5126,
      "count": 2,
      "max": [
        1,
        0,
        0,
        0,
        0,
        1,
        0,
        0,
        0,
        0,
        1,
        0,
        4.0235105256917613e-16,
        0,
        1.919943773506211e-16,
        1
      ],
      "min": [
        1,
        0,
        0,
        0,
        0,
        1,
        0,
        0,
        0,
        0,
        1,
        0,
        0,
        -4.375,
        0,
        1
      ],
      "type": "MAT4"
    }
  ],
  "materials": [
    {
      "pbrMetallicRoughness": {
        "metallicFactor": 0,
        "roughnessFactor": 1,
        "baseColorFactor": [
          0.8,
          0.8,
          0.8,
          1
        ]
      },
      "alphaMode": "MASK",
      "alphaCutoff": 0.05,
      "doubleSided": true
    }
  ],
  "meshes": [
    {
      "primitives": [
        {
          "mode": 4,
          "attributes": {
            "POSITION": 0,
            "NORMAL": 1,
            "TEXCOORD_0": 2,
            "JOINTS_0": 3,
            "WEIGHTS_0": 4
          },
          "indices": 5,
          "material": 0
        }
      ]
    }
  ],
  "skins": [
    {
      "inverseBindMatrices": 6,
      "joints": [
        1,
        0
      ],
      "skeleton": 1
    }
  ]
}