{"asset":{"version":"2.0","generator":"Blockbench 5.0.2 glTF exporter"},"scenes":[{"nodes":[5],"name":"blockbench_export"}],"scene":0,"nodes":[{"name":"base"},{"name":"arm"},{"translation":[0,0.625,0],"name":"rotor"},{"translation":[0,23.125,0],"name":"fan","children":[1,2]},{"name":"root","children":[0,3]},{"translation":[0,-3.75,0],"name":"root","mesh":0,"children":[4],"skin":0}],"bufferViews":[{"buffer":0,"byteOffset":0,"byteLength":5064,"target":34962,"byteStride":12},{"buffer":0,"byteOffset":5064,"byteLength":5064,"target":34962,"byteStride":12},{"buffer":0,"byteOffset":10128,"byteLength":3376,"target":34962,"byteStride":8},{"buffer":0,"byteOffset":13504,"byteLength":3376,"target":34962,"byteStride":8},{"buffer":0,"byteOffset":16880,"byteLength":6752,"target":34962,"byteStride":16},{"buffer":0,"byteOffset":23632,"byteLength":1248,"target":34963},{"buffer":0,"byteOffset":24880,"byteLength":320}],"buffers":[{"byteLength":25200,"uri":"data:application/octet-stream;base64,"}],"accessors":[{"bufferView":0,"componentType":5126,"count":422,"max":[12.925613403320312,32.1875,10],"min":[-12.925613403320312,-1.25,-10],"type":"VEC3"},{"bufferView":1,"componentType":5126,"count":422,"max":[1,1,1],"min":[-1,-1,-1],"type":"VEC3"},{"bufferView":2,"componentType":5126,"count":422,"max":[0.984375,0.9836623072624207],"min":[0,0],"type":"VEC2"},{"bufferView":3,"componentType":5123,"count":422,"max":[0,4,0,0],"min":[0,1,0,0],"type":"VEC4"},{"bufferView":4,"componentType":5126,"count":422,"max":[0,1,0,0],"min":[0,1,0,0],"type":"VEC4"},{"bufferView":5,"componentType":5123,"count":624,"max":[421],"min":[0],"type":"SCALAR"},{"bufferView":6,"componentType":5126,"count":5,"max":[1,0,0,0,0,1,0,0,0,0,1,0,0,0,0,1],"min":[1,0,0,0,0,1,0,0,0,0,1,0,0,-23.75,0,1],"type":"MAT4"}],"materials":[{"pbrMetallicRoughness":{"metallicFactor":0,"roughnessFactor":1,"baseColorTexture":{"index":0}},"alphaMode":"MASK","alphaCutoff":0.05,"doubleSided":true}],"textures":[{"sampler":0,"source":0,"name":"va_solar_wind_turbine_1"}],"samplers":[{"magFilter":9728,"minFilter":9728,"wrapS":33071,"wrapT":33071}],"images":[{"mimeType":"image/png","name":"va_solar_wind_turbine_1.png","uri":"va_solar_wind_turbine_1.png"}],"meshes":[{"primitives":[{"mode":4,"attributes":{"POSITION":0,"NORMAL":1,"TEXCOORD_0":2,"JOINTS_0":3,"WEIGHTS_0":4},"indices":5,"material":0}]}],"skins":[{"inverseBindMatrices":6,"joints":[4,0,3,1,2],"skeleton":4}]}