{
  "asset": { "version": "2.0", "generator": "Blockbench 4.12.6 glTF exporter" },
  "scenes": [{ "nodes": [12], "name": "blockbench_export" }],
  "scene": 0,
  "nodes": [
    { "translation": [0, 8.333333333333332, 0], "name": "cuboid", "mesh": 0 },
    {
      "translation": [
        -0.0392156862745098, -9.666666666666666, -1.3137254901960784
      ],
      "name": "cuboid",
      "mesh": 1
    },
    { "translation": [0, 0, 0.5], "name": "cuboid", "mesh": 2 },
    {
      "translation": [
        -0.0392156862745098, 2.6666666666666665, -0.5914988235294119
      ],
      "name": "arms",
      "children": [2]
    },
    {
      "translation": [0.0392156862745098, 18, 1.3137254901960784],
      "name": "head",
      "children": [1, 3]
    },
    { "translation": [-5.333333333333333, 0, 0], "name": "cube", "mesh": 3 },
    {
      "translation": [0, 10, 1.3333333333333333],
      "name": "left_leg",
      "children": [5]
    },
    {
      "translation": [5.333333333333333, 0, 0.3333333333333333],
      "name": "cube",
      "mesh": 4
    },
    { "translation": [0, 10, 1], "name": "right_leg", "children": [7] },
    {
      "translation": [0, 4.333333333333333, 0],
      "name": "legs",
      "children": [6, 8]
    },
    {
      "translation": [0, -1.6666666666666665, 0],
      "name": "torso",
      "children": [0, 4, 9]
    },
    {
      "translation": [0, -2.6666666666666665, 0],
      "name": "root",
      "children": [10]
    },
    { "children": [11] }
  ],
  "bufferViews": [
    {
      "buffer": 0,
      "byteOffset": 0,
      "byteLength": 1680,
      "target": 34962,
      "byteStride": 12
    },
    {
      "buffer": 0,
      "byteOffset": 1680,
      "byteLength": 1680,
      "target": 34962,
      "byteStride": 12
    },
    {
      "buffer": 0,
      "byteOffset": 3360,
      "byteLength": 1120,
      "target": 34962,
      "byteStride": 8
    },
    { "buffer": 0, "byteOffset": 4480, "byteLength": 420, "target": 34963 },
    {
      "buffer": 0,
      "byteOffset": 4900,
      "byteLength": 528,
      "target": 34962,
      "byteStride": 12
    },
    {
      "buffer": 0,
      "byteOffset": 5428,
      "byteLength": 528,
      "target": 34962,
      "byteStride": 12
    },
    {
      "buffer": 0,
      "byteOffset": 5956,
      "byteLength": 352,
      "target": 34962,
      "byteStride": 8
    },
    { "buffer": 0, "byteOffset": 6308, "byteLength": 132, "target": 34963 },
    {
      "buffer": 0,
      "byteOffset": 6440,
      "byteLength": 3168,
      "target": 34962,
      "byteStride": 12
    },
    {
      "buffer": 0,
      "byteOffset": 9608,
      "byteLength": 3168,
      "target": 34962,
      "byteStride": 12
    },
    {
      "buffer": 0,
      "byteOffset": 12776,
      "byteLength": 2112,
      "target": 34962,
      "byteStride": 8
    },
    { "buffer": 0, "byteOffset": 14888, "byteLength": 792, "target": 34963 },
    {
      "buffer": 0,
      "byteOffset": 15680,
      "byteLength": 1248,
      "target": 34962,
      "byteStride": 12
    },
    {
      "buffer": 0,
      "byteOffset": 16928,
      "byteLength": 1248,
      "target": 34962,
      "byteStride": 12
    },
    {
      "buffer": 0,
      "byteOffset": 18176,
      "byteLength": 832,
      "target": 34962,
      "byteStride": 8
    },
    { "buffer": 0, "byteOffset": 19008, "byteLength": 312, "target": 34963 },
    {
      "buffer": 0,
      "byteOffset": 19320,
      "byteLength": 1248,
      "target": 34962,
      "byteStride": 12
    },
    {
      "buffer": 0,
      "byteOffset": 20568,
      "byteLength": 1248,
      "target": 34962,
      "byteStride": 12
    },
    {
      "buffer": 0,
      "byteOffset": 21816,
      "byteLength": 832,
      "target": 34962,
      "byteStride": 8
    },
    { "buffer": 0, "byteOffset": 22648, "byteLength": 312, "target": 34963 },
    { "buffer": 0, "byteOffset": 22960, "byteLength": 24 },
    { "buffer": 0, "byteOffset": 22984, "byteLength": 96 },
    { "buffer": 0, "byteOffset": 23080, "byteLength": 24 },
    { "buffer": 0, "byteOffset": 23104, "byteLength": 72 },
    { "buffer": 0, "byteOffset": 23176, "byteLength": 72 },
    { "buffer": 0, "byteOffset": 23248, "byteLength": 288 },
    { "buffer": 0, "byteOffset": 23536, "byteLength": 24 },
    { "buffer": 0, "byteOffset": 23560, "byteLength": 72 },
    { "buffer": 0, "byteOffset": 23632, "byteLength": 68 },
    { "buffer": 0, "byteOffset": 23700, "byteLength": 272 },
    { "buffer": 0, "byteOffset": 23972, "byteLength": 24 },
    { "buffer": 0, "byteOffset": 23996, "byteLength": 72 },
    { "buffer": 0, "byteOffset": 24068, "byteLength": 72 },
    { "buffer": 0, "byteOffset": 24140, "byteLength": 288 },
    { "buffer": 0, "byteOffset": 24428, "byteLength": 8 },
    { "buffer": 0, "byteOffset": 24436, "byteLength": 24 }
  ],
  "buffers": [
    {
      "byteLength": 24460,
      "uri": "data:application/octet-stream;base64,"
    }
  ],
  "accessors": [
    {
      "bufferView": 0,
      "componentType": 5126,
      "count": 140,
      "max": [4, 9.333333015441895, 7.333333492279053],
      "min": [-4, 1.3333333730697632, -4],
      "type": "VEC3"
    },
    {
      "bufferView": 1,
      "componentType": 5126,
      "count": 140,
      "max": [1, 1, 1],
      "min": [-1, -1, -1],
      "type": "VEC3"
    },
    {
      "bufferView": 2,
      "componentType": 5126,
      "count": 140,
      "max": [0.5625, 0.890625],
      "min": [0, 0],
      "type": "VEC2"
    },
    {
      "bufferView": 3,
      "componentType": 5123,
      "count": 210,
      "max": [139],
      "min": [0],
      "type": "SCALAR"
    },
    {
      "bufferView": 4,
      "componentType": 5126,
      "count": 44,
      "max": [3, 14, 4],
      "min": [-3, 9.333333015441895, -2],
      "type": "VEC3"
    },
    {
      "bufferView": 5,
      "componentType": 5126,
      "count": 44,
      "max": [1, 1, 1],
      "min": [-1, -1, -1],
      "type": "VEC3"
    },
    {
      "bufferView": 6,
      "componentType": 5126,
      "count": 44,
      "max": [0.6953125, 0.4296875],
      "min": [0, 0],
      "type": "VEC2"
    },
    {
      "bufferView": 7,
      "componentType": 5123,
      "count": 66,
      "max": [43],
      "min": [0],
      "type": "SCALAR"
    },
    {
      "bufferView": 8,
      "componentType": 5126,
      "count": 264,
      "max": [4.873773097991943, 1.373773217201233, 1.4444400072097778],
      "min": [-4.873773097991943, -1.373773217201233, -9.2222261428833],
      "type": "VEC3"
    },
    {
      "bufferView": 9,
      "componentType": 5126,
      "count": 264,
      "max": [1, 1, 1],
      "min": [-1, -1, -1],
      "type": "VEC3"
    },
    {
      "bufferView": 10,
      "componentType": 5126,
      "count": 264,
      "max": [1, 0.9999997019767761],
      "min": [0.5390625, 0.5],
      "type": "VEC2"
    },
    {
      "bufferView": 11,
      "componentType": 5123,
      "count": 396,
      "max": [263],
      "min": [0],
      "type": "SCALAR"
    },
    {
      "bufferView": 12,
      "componentType": 5126,
      "count": 104,
      "max": [1.3333333730697632, 1.9895466566085815, 5.9771199226379395],
      "min": [-1.3333333730697632, -10.010453224182129, -3.356213331222534],
      "type": "VEC3"
    },
    {
      "bufferView": 13,
      "componentType": 5126,
      "count": 104,
      "max": [1, 1, 1],
      "min": [-1, -1, -1],
      "type": "VEC3"
    },
    {
      "bufferView": 14,
      "componentType": 5126,
      "count": 104,
      "max": [1, 0.484375],
      "min": [0.5625, 0.0006009340286254883],
      "type": "VEC2"
    },
    {
      "bufferView": 15,
      "componentType": 5123,
      "count": 156,
      "max": [103],
      "min": [0],
      "type": "SCALAR"
    },
    {
      "bufferView": 16,
      "componentType": 5126,
      "count": 104,
      "max": [1.3333333730697632, 1.9895466566085815, 5.9771199226379395],
      "min": [-1.3333333730697632, -10.010453224182129, -3.356213331222534],
      "type": "VEC3"
    },
    {
      "bufferView": 17,
      "componentType": 5126,
      "count": 104,
      "max": [1, 1, 1],
      "min": [-1, -1, -1],
      "type": "VEC3"
    },
    {
      "bufferView": 18,
      "componentType": 5126,
      "count": 104,
      "max": [1, 0.484375],
      "min": [0.5625, 0],
      "type": "VEC2"
    },
    {
      "bufferView": 19,
      "componentType": 5123,
      "count": 156,
      "max": [103],
      "min": [0],
      "type": "SCALAR"
    },
    {
      "bufferView": 20,
      "componentType": 5126,
      "count": 6,
      "max": [1.0833300352096558],
      "min": [0],
      "type": "SCALAR"
    },
    {
      "bufferView": 21,
      "componentType": 5126,
      "count": 6,
      "max": [0, 0.044074516743421555, 0.021788936108350754, 1],
      "min": [
        -0.020858367905020714, -0.044074516743421555, -0.021788936108350754,
        0.9985727667808533
      ],
      "type": "VEC4"
    },
    {
      "bufferView": 22,
      "componentType": 5126,
      "count": 6,
      "max": [1.0833300352096558],
      "min": [0],
      "type": "SCALAR"
    },
    {
      "bufferView": 23,
      "componentType": 5126,
      "count": 6,
      "max": [0, -1.399999976158142, 0],
      "min": [0, -1.6666666269302368, -0.13333334028720856],
      "type": "VEC3"
    },
    {
      "bufferView": 24,
      "componentType": 5126,
      "count": 18,
      "max": [1.0416699647903442],
      "min": [0],
      "type": "SCALAR"
    },
    {
      "bufferView": 25,
      "componentType": 5126,
      "count": 18,
      "max": [0.02336285449564457, 0, 0, 1],
      "min": [-0.2870147228240967, 0, 0, 0.9579261541366577],
      "type": "VEC4"
    },
    {
      "bufferView": 26,
      "componentType": 5126,
      "count": 6,
      "max": [1.0416699647903442],
      "min": [0],
      "type": "SCALAR"
    },
    {
      "bufferView": 27,
      "componentType": 5126,
      "count": 6,
      "max": [0.46666666865348816, 11.333333015441895, 2],
      "min": [-0.7333333492279053, 9.733333587646484, -2],
      "type": "VEC3"
    },
    {
      "bufferView": 28,
      "componentType": 5126,
      "count": 17,
      "max": [1.0416699647903442],
      "min": [0],
      "type": "SCALAR"
    },
    {
      "bufferView": 29,
      "componentType": 5126,
      "count": 17,
      "max": [0.08803906291723251, 0, 0, 1],
      "min": [-0.14820396900177002, 0, 0, 0.9889568090438843],
      "type": "VEC4"
    },
    {
      "bufferView": 30,
      "componentType": 5126,
      "count": 6,
      "max": [1.0416699647903442],
      "min": [0],
      "type": "SCALAR"
    },
    {
      "bufferView": 31,
      "componentType": 5126,
      "count": 6,
      "max": [0.7333333492279053, 11.333333015441895, 1.6666666269302368],
      "min": [-0.46666666865348816, 9.733333587646484, -2.3333332538604736],
      "type": "VEC3"
    },
    {
      "bufferView": 32,
      "componentType": 5126,
      "count": 18,
      "max": [1.0416699647903442],
      "min": [0],
      "type": "SCALAR"
    },
    {
      "bufferView": 33,
      "componentType": 5126,
      "count": 18,
      "max": [0, 0, 0.03358688950538635, 1],
      "min": [0, 0, -0.030848458409309387, 0.9994357824325562],
      "type": "VEC4"
    },
    {
      "bufferView": 34,
      "componentType": 5126,
      "count": 2,
      "max": [1.0416699647903442],
      "min": [0],
      "type": "SCALAR"
    },
    {
      "bufferView": 35,
      "componentType": 5126,
      "count": 2,
      "max": [-0.03921568766236305, 2.6666667461395264, -0.591498851776123],
      "min": [-0.03921568766236305, 2.6666667461395264, -0.591498851776123],
      "type": "VEC3"
    }
  ],
  "materials": [
    {
      "pbrMetallicRoughness": {
        "metallicFactor": 0,
        "roughnessFactor": 1,
        "baseColorTexture": { "index": 0 }
      },
      "alphaMode": "MASK",
      "alphaCutoff": 0.05,
      "doubleSided": true
    }
  ],
  "textures": [{ "sampler": 0, "source": 0, "name": "texture.png" }],
  "samplers": [
    { "magFilter": 9728, "minFilter": 9728, "wrapS": 33071, "wrapT": 33071 }
  ],
  "images": [
    { "mimeType": "image/png", "name": "texture.png", "uri": "texture.png" }
  ],
  "meshes": [
    {
      "primitives": [
        {
          "mode": 4,
          "attributes": { "POSITION": 0, "NORMAL": 1, "TEXCOORD_0": 2 },
          "indices": 3,
          "material": 0
        }
      ]
    },
    {
      "primitives": [
        {
          "mode": 4,
          "attributes": { "POSITION": 4, "NORMAL": 5, "TEXCOORD_0": 6 },
          "indices": 7,
          "material": 0
        }
      ]
    },
    {
      "primitives": [
        {
          "mode": 4,
          "attributes": { "POSITION": 8, "NORMAL": 9, "TEXCOORD_0": 10 },
          "indices": 11,
          "material": 0
        }
      ]
    },
    {
      "primitives": [
        {
          "mode": 4,
          "attributes": { "POSITION": 12, "NORMAL": 13, "TEXCOORD_0": 14 },
          "indices": 15,
          "material": 0
        }
      ]
    },
    {
      "primitives": [
        {
          "mode": 4,
          "attributes": { "POSITION": 16, "NORMAL": 17, "TEXCOORD_0": 18 },
          "indices": 19,
          "material": 0
        }
      ]
    }
  ],
  "animations": [
    {
      "name": "animation",
      "samplers": [
        { "input": 20, "output": 21, "interpolation": "LINEAR" },
        { "input": 22, "output": 23, "interpolation": "LINEAR" },
        { "input": 24, "output": 25, "interpolation": "LINEAR" },
        { "input": 26, "output": 27, "interpolation": "LINEAR" },
        { "input": 28, "output": 29, "interpolation": "LINEAR" },
        { "input": 30, "output": 31, "interpolation": "LINEAR" },
        { "input": 32, "output": 33, "interpolation": "LINEAR" },
        { "input": 34, "output": 35, "interpolation": "LINEAR" }
      ],
      "channels": [
        { "sampler": 0, "target": { "node": 10, "path": "rotation" } },
        { "sampler": 1, "target": { "node": 10, "path": "translation" } },
        { "sampler": 2, "target": { "node": 6, "path": "rotation" } },
        { "sampler": 3, "target": { "node": 6, "path": "translation" } },
        { "sampler": 4, "target": { "node": 8, "path": "rotation" } },
        { "sampler": 5, "target": { "node": 8, "path": "translation" } },
        { "sampler": 6, "target": { "node": 3, "path": "rotation" } },
        { "sampler": 7, "target": { "node": 3, "path": "translation" } }
      ]
    }
  ]
}
