{"asset":{"version":"2.0","generator":"Blockbench 4.12.6 glTF exporter"},"scenes":[{"nodes":[7],"name":"blockbench_export"}],"scene":0,"nodes":[{"rotation":[6.123233995736766e-17,-1,6.123233995736766e-17,3.749399456654644e-33],"name":"cuboid","mesh":0},{"translation":[0,12.5,-2.0625],"name":"torso","children":[0]},{"rotation":[6.123233995736766e-17,-1,6.123233995736766e-17,3.749399456654644e-33],"translation":[0,0.0732250000000001,0.030325],"name":"cuboid","mesh":1},{"translation":[-3.4375,11.801775000000001,-1.905325],"name":"left_leg","children":[2]},{"rotation":[6.123233995736766e-17,-1,6.123233995736766e-17,3.749399456654644e-33],"translation":[0,0.0732250000000001,0.342825],"name":"cuboid","mesh":2},{"translation":[3.4375,11.801775000000001,-2.217825],"name":"right_leg","children":[4]},{"translation":[0,-2.5,1.875],"name":"root","children":[1,3,5]},{"children":[6]}],"bufferViews":[{"buffer":0,"byteOffset":0,"byteLength":288,"target":34962,"byteStride":12},{"buffer":0,"byteOffset":288,"byteLength":288,"target":34962,"byteStride":12},{"buffer":0,"byteOffset":576,"byteLength":192,"target":34962,"byteStride":8},{"buffer":0,"byteOffset":768,"byteLength":72,"target":34963},{"buffer":0,"byteOffset":840,"byteLength":1248,"target":34962,"byteStride":12},{"buffer":0,"byteOffset":2088,"byteLength":1248,"target":34962,"byteStride":12},{"buffer":0,"byteOffset":3336,"byteLength":832,"target":34962,"byteStride":8},{"buffer":0,"byteOffset":4168,"byteLength":312,"target":34963},{"buffer":0,"byteOffset":4480,"byteLength":1248,"target":34962,"byteStride":12},{"buffer":0,"byteOffset":5728,"byteLength":1248,"target":34962,"byteStride":12},{"buffer":0,"byteOffset":6976,"byteLength":832,"target":34962,"byteStride":8},{"buffer":0,"byteOffset":7808,"byteLength":312,"target":34963}],"buffers":[{"byteLength":8120,"uri":"data:application/octet-stream;base64,"}],"accessors":[{"bufferView":0,"componentType":5126,"count":24,"max":[2.5,2.5,2.3125],"min":[-2.5,-2.5,-2.6875],"type":"VEC3"},{"bufferView":1,"componentType":5126,"count":24,"max":[1,1,1],"min":[-1,-1,-1],"type":"VEC3"},{"bufferView":2,"componentType":5126,"count":24,"max":[0.75,1],"min":[0,0],"type":"VEC2"},{"bufferView":3,"componentType":5123,"count":36,"max":[23],"min":[0],"type":"SCALAR"},{"bufferView":4,"componentType":5126,"count":104,"max":[0.9375,1.25,2.1875],"min":[-0.9375,-9.375,-5.625],"type":"VEC3"},{"bufferView":5,"componentType":5126,"count":104,"max":[1,1,1],"min":[-1,-1,-1],"type":"VEC3"},{"bufferView":6,"componentType":5126,"count":104,"max":[1,1],"min":[0,0.46875],"type":"VEC2"},{"bufferView":7,"componentType":5123,"count":156,"max":[103],"min":[0],"type":"SCALAR"},{"bufferView":8,"componentType":5126,"count":104,"max":[0.9375,1.25,2.1875],"min":[-0.9375,-9.375,-5.625],"type":"VEC3"},{"bufferView":9,"componentType":5126,"count":104,"max":[1,1,1],"min":[-1,-1,-1],"type":"VEC3"},{"bufferView":10,"componentType":5126,"count":104,"max":[0.8828125,0.75],"min":[0,0],"type":"VEC2"},{"bufferView":11,"componentType":5123,"count":156,"max":[103],"min":[0],"type":"SCALAR"}],"materials":[{"pbrMetallicRoughness":{"metallicFactor":0,"roughnessFactor":1},"alphaMode":"MASK","alphaCutoff":0.05,"doubleSided":true},{"pbrMetallicRoughness":{"metallicFactor":0,"roughnessFactor":1},"alphaMode":"MASK","alphaCutoff":0.05,"doubleSided":true}],"meshes":[{"primitives":[{"mode":4,"attributes":{"POSITION":0,"NORMAL":1,"TEXCOORD_0":2},"indices":3,"material":0}]},{"primitives":[{"mode":4,"attributes":{"POSITION":4,"NORMAL":5,"TEXCOORD_0":6},"indices":7,"material":1}]},{"primitives":[{"mode":4,"attributes":{"POSITION":8,"NORMAL":9,"TEXCOORD_0":10},"indices":11,"material":1}]}]}