{
  "asset": {
    "version": "2.0",
    "generator": "Blockbench 5.0.2 glTF exporter"
  },
  "scenes": [
    {
      "nodes": [
        13
      ],
      "name": "blockbench_export"
    }
  ],
  "scene": 0,
  "nodes": [
    {
      "translation": [
        -0.02432000000000034,
        -0.5,
        -0.25
      ],
      "name": "cube",
      "mesh": 0
    },
    {
      "translation": [
        -4.48784,
        1.5,
        0.02027
      ],
      "name": "left_arm",
      "children": [
        0
      ]
    },
    {
      "translation": [
        0,
        -0.5,
        -0.20946
      ],
      "name": "cube",
      "mesh": 1
    },
    {
      "translation": [
        4.48784,
        1.5,
        -0.02027
      ],
      "name": "right_arm",
      "children": [
        2
      ]
    },
    {
      "translation": [
        -0.01216000000000017,
        8.5,
        -0.02027
      ],
      "name": "arms",
      "children": [
        1,
        3
      ]
    },
    {
      "translation": [
        0,
        0.25,
        0.25
      ],
      "name": "cube",
      "mesh": 2
    },
    {
      "translation": [
        0,
        10,
        0
      ],
      "name": "head",
      "children": [
        4,
        5
      ]
    },
    {
      "rotation": [
        6.123233995736766e-17,
        1,
        -6.123233995736766e-17,
        3.749399456654644e-33
      ],
      "translation": [
        -0.25,
        0.5,
        -0.64926
      ],
      "name": "cuboid",
      "mesh": 3
    },
    {
      "translation": [
        -2.5,
        6,
        0
      ],
      "name": "left_leg",
      "children": [
        7
      ]
    },
    {
      "rotation": [
        6.123233995736766e-17,
        -1,
        6.123233995736766e-17,
        3.749399456654644e-33
      ],
      "translation": [
        0.25,
        -0.4277199999999999,
        -0.09999999999999998
      ],
      "name": "cuboid",
      "mesh": 4
    },
    {
      "translation": [
        2.5,
        6.92772,
        -0.54926
      ],
      "name": "right_leg",
      "children": [
        9
      ]
    },
    {
      "translation": [
        0,
        6.25,
        0.25
      ],
      "name": "cube",
      "mesh": 5
    },
    {
      "translation": [
        0,
        4,
        0
      ],
      "name": "legs",
      "children": [
        8,
        10,
        11
      ]
    },
    {
      "translation": [
        0,
        -4,
        0
      ],
      "name": "root",
      "children": [
        6,
        12
      ]
    }
  ],
  "bufferViews": [
    {
      "buffer": 0,
      "byteOffset": 0,
      "byteLength": 1008,
      "target": 34962,
      "byteStride": 12
    },
    {
      "buffer": 0,
      "byteOffset": 1008,
      "byteLength": 1008,
      "target": 34962,
      "byteStride": 12
    },
    {
      "buffer": 0,
      "byteOffset": 2016,
      "byteLength": 672,
      "target": 34962,
      "byteStride": 8
    },
    {
      "buffer": 0,
      "byteOffset": 2688,
      "byteLength": 252,
      "target": 34963
    },
    {
      "buffer": 0,
      "byteOffset": 2940,
      "byteLength": 1008,
      "target": 34962,
      "byteStride": 12
    },
    {
      "buffer": 0,
      "byteOffset": 3948,
      "byteLength": 1008,
      "target": 34962,
      "byteStride": 12
    },
    {
      "buffer": 0,
      "byteOffset": 4956,
      "byteLength": 672,
      "target": 34962,
      "byteStride": 8
    },
    {
      "buffer": 0,
      "byteOffset": 5628,
      "byteLength": 252,
      "target": 34963
    },
    {
      "buffer": 0,
      "byteOffset": 5880,
      "byteLength": 960,
      "target": 34962,
      "byteStride": 12
    },
    {
      "buffer": 0,
      "byteOffset": 6840,
      "byteLength": 960,
      "target": 34962,
      "byteStride": 12
    },
    {
      "buffer": 0,
      "byteOffset": 7800,
      "byteLength": 640,
      "target": 34962,
      "byteStride": 8
    },
    {
      "buffer": 0,
      "byteOffset": 8440,
      "byteLength": 240,
      "target": 34963
    },
    {
      "buffer": 0,
      "byteOffset": 8680,
      "byteLength": 1248,
      "target": 34962,
      "byteStride": 12
    },
    {
      "buffer": 0,
      "byteOffset": 9928,
      "byteLength": 1248,
      "target": 34962,
      "byteStride": 12
    },
    {
      "buffer": 0,
      "byteOffset": 11176,
      "byteLength": 832,
      "target": 34962,
      "byteStride": 8
    },
    {
      "buffer": 0,
      "byteOffset": 12008,
      "byteLength": 312,
      "target": 34963
    },
    {
      "buffer": 0,
      "byteOffset": 12320,
      "byteLength": 1248,
      "target": 34962,
      "byteStride": 12
    },
    {
      "buffer": 0,
      "byteOffset": 13568,
      "byteLength": 1248,
      "target": 34962,
      "byteStride": 12
    },
    {
      "buffer": 0,
      "byteOffset": 14816,
      "byteLength": 832,
      "target": 34962,
      "byteStride": 8
    },
    {
      "buffer": 0,
      "byteOffset": 15648,
      "byteLength": 312,
      "target": 34963
    },
    {
      "buffer": 0,
      "byteOffset": 15960,
      "byteLength": 864,
      "target": 34962,
      "byteStride": 12
    },
    {
      "buffer": 0,
      "byteOffset": 16824,
      "byteLength": 864,
      "target": 34962,
      "byteStride": 12
    },
    {
      "buffer": 0,
      "byteOffset": 17688,
      "byteLength": 576,
      "target": 34962,
      "byteStride": 8
    },
    {
      "buffer": 0,
      "byteOffset": 18264,
      "byteLength": 216,
      "target": 34963
    },
    {
      "buffer": 0,
      "byteOffset": 18480,
      "byteLength": 20
    },
    {
      "buffer": 0,
      "byteOffset": 18500,
      "byteLength": 80
    },
    {
      "buffer": 0,
      "byteOffset": 18580,
      "byteLength": 8
    },
    {
      "buffer": 0,
      "byteOffset": 18588,
      "byteLength": 24
    },
    {
      "buffer": 0,
      "byteOffset": 18612,
      "byteLength": 68
    },
    {
      "buffer": 0,
      "byteOffset": 18680,
      "byteLength": 272
    },
    {
      "buffer": 0,
      "byteOffset": 18952,
      "byteLength": 24
    },
    {
      "buffer": 0,
      "byteOffset": 18976,
      "byteLength": 72
    },
    {
      "buffer": 0,
      "byteOffset": 19048,
      "byteLength": 68
    },
    {
      "buffer": 0,
      "byteOffset": 19116,
      "byteLength": 272
    },
    {
      "buffer": 0,
      "byteOffset": 19388,
      "byteLength": 24
    },
    {
      "buffer": 0,
      "byteOffset": 19412,
      "byteLength": 72
    },
    {
      "buffer": 0,
      "byteOffset": 19484,
      "byteLength": 72
    },
    {
      "buffer": 0,
      "byteOffset": 19556,
      "byteLength": 288
    },
    {
      "buffer": 0,
      "byteOffset": 19844,
      "byteLength": 24
    },
    {
      "buffer": 0,
      "byteOffset": 19868,
      "byteLength": 72
    },
    {
      "buffer": 0,
      "byteOffset": 19940,
      "byteLength": 68
    },
    {
      "buffer": 0,
      "byteOffset": 20008,
      "byteLength": 272
    },
    {
      "buffer": 0,
      "byteOffset": 20280,
      "byteLength": 24
    },
    {
      "buffer": 0,
      "byteOffset": 20304,
      "byteLength": 72
    }
  ],
  "buffers": [
    {
      "byteLength": 20376,
      "uri": "data:application/octet-stream;base64,"
    }
  ],
  "accessors": [
    {
      "bufferView": 0,
      "componentType": 5126,
      "count": 84,
      "max": [
        1.5243200063705444,
        0.7027000188827515,
        1.5405399799346924
      ],
      "min": [
        -1.4756799936294556,
        -7.047299861907959,
        -6.2094597816467285
      ],
      "type": "VEC3"
    },
    {
      "bufferView": 1,
      "componentType": 5126,
      "count": 84,
      "max": [
        1,
        1,
        1
      ],
      "min": [
        -1,
        -1,
        -1
      ],
      "type": "VEC3"
    },
    {
      "bufferView": 2,
      "componentType": 5126,
      "count": 84,
      "max": [
        0.6875,
        1
      ],
      "min": [
        0,
        0.09375
      ],
      "type": "VEC2"
    },
    {
      "bufferView": 3,
      "componentType": 5123,
      "count": 126,
      "max": [
        83
      ],
      "min": [
        0
      ],
      "type": "SCALAR"
    },
    {
      "bufferView": 4,
      "componentType": 5126,
      "count": 84,
      "max": [
        1.5243200063705444,
        0.7027000188827515,
        1.5405399799346924
      ],
      "min": [
        -1.4756799936294556,
        -7.047299861907959,
        -6.2094597816467285
      ],
      "type": "VEC3"
    },
    {
      "bufferView": 5,
      "componentType": 5126,
      "count": 84,
      "max": [
        1,
        1,
        1
      ],
      "min": [
        -1,
        -1,
        -1
      ],
      "type": "VEC3"
    },
    {
      "bufferView": 6,
      "componentType": 5126,
      "count": 84,
      "max": [
        0.6875,
        1
      ],
      "min": [
        0,
        0.2109375
      ],
      "type": "VEC2"
    },
    {
      "bufferView": 7,
      "componentType": 5123,
      "count": 126,
      "max": [
        83
      ],
      "min": [
        0
      ],
      "type": "SCALAR"
    },
    {
      "bufferView": 8,
      "componentType": 5126,
      "count": 80,
      "max": [
        3,
        10,
        2.5
      ],
      "min": [
        -3,
        3.3333399295806885,
        -3.5
      ],
      "type": "VEC3"
    },
    {
      "bufferView": 9,
      "componentType": 5126,
      "count": 80,
      "max": [
        1,
        1,
        1
      ],
      "min": [
        -1,
        -1,
        -1
      ],
      "type": "VEC3"
    },
    {
      "bufferView": 10,
      "componentType": 5126,
      "count": 80,
      "max": [
        0.8046875,
        0.84375
      ],
      "min": [
        0,
        0
      ],
      "type": "VEC2"
    },
    {
      "bufferView": 11,
      "componentType": 5123,
      "count": 120,
      "max": [
        79
      ],
      "min": [
        0
      ],
      "type": "SCALAR"
    },
    {
      "bufferView": 12,
      "componentType": 5126,
      "count": 104,
      "max": [
        1.25,
        1.022279977798462,
        1.7257399559020996
      ],
      "min": [
        -1.25,
        -6.477719783782959,
        -4.5242600440979
      ],
      "type": "VEC3"
    },
    {
      "bufferView": 13,
      "componentType": 5126,
      "count": 104,
      "max": [
        1,
        1,
        1
      ],
      "min": [
        -1,
        -1,
        -1
      ],
      "type": "VEC3"
    },
    {
      "bufferView": 14,
      "componentType": 5126,
      "count": 104,
      "max": [
        0.6364136934280396,
        1.0039561986923218
      ],
      "min": [
        0,
        0
      ],
      "type": "VEC2"
    },
    {
      "bufferView": 15,
      "componentType": 5123,
      "count": 156,
      "max": [
        103
      ],
      "min": [
        0
      ],
      "type": "SCALAR"
    },
    {
      "bufferView": 16,
      "componentType": 5126,
      "count": 104,
      "max": [
        1.25,
        1.022279977798462,
        1.7257399559020996
      ],
      "min": [
        -1.25,
        -6.477719783782959,
        -4.5242600440979
      ],
      "type": "VEC3"
    },
    {
      "bufferView": 17,
      "componentType": 5126,
      "count": 104,
      "max": [
        1,
        1,
        1
      ],
      "min": [
        -1,
        -1,
        -1
      ],
      "type": "VEC3"
    },
    {
      "bufferView": 18,
      "componentType": 5126,
      "count": 104,
      "max": [
        0.6364136934280396,
        1.0039561986923218
      ],
      "min": [
        0,
        0
      ],
      "type": "VEC2"
    },
    {
      "bufferView": 19,
      "componentType": 5123,
      "count": 156,
      "max": [
        103
      ],
      "min": [
        0
      ],
      "type": "SCALAR"
    },
    {
      "bufferView": 20,
      "componentType": 5126,
      "count": 72,
      "max": [
        3,
        3.3333399295806885,
        1.75
      ],
      "min": [
        -3,
        0,
        -3.5
      ],
      "type": "VEC3"
    },
    {
      "bufferView": 21,
      "componentType": 5126,
      "count": 72,
      "max": [
        1,
        1,
        1
      ],
      "min": [
        -1,
        -1,
        -1
      ],
      "type": "VEC3"
    },
    {
      "bufferView": 22,
      "componentType": 5126,
      "count": 72,
      "max": [
        0.625,
        0.2265625
      ],
      "min": [
        0.140625,
        0.015625
      ],
      "type": "VEC2"
    },
    {
      "bufferView": 23,
      "componentType": 5123,
      "count": 108,
      "max": [
        71
      ],
      "min": [
        0
      ],
      "type": "SCALAR"
    },
    {
      "bufferView": 24,
      "componentType": 5126,
      "count": 5,
      "max": [
        1
      ],
      "min": [
        0
      ],
      "type": "SCALAR"
    },
    {
      "bufferView": 25,
      "componentType": 5126,
      "count": 5,
      "max": [
        0,
        0.0004758892173413187,
        0.021809693425893784,
        1
      ],
      "min": [
        -0.021809693425893784,
        -0.0004758892173413187,
        -0.021809693425893784,
        0.9995241165161133
      ],
      "type": "VEC4"
    },
    {
      "bufferView": 26,
      "componentType": 5126,
      "count": 2,
      "max": [
        1
      ],
      "min": [
        0
      ],
      "type": "SCALAR"
    },
    {
      "bufferView": 27,
      "componentType": 5126,
      "count": 2,
      "max": [
        0,
        10,
        0
      ],
      "min": [
        0,
        10,
        0
      ],
      "type": "VEC3"
    },
    {
      "bufferView": 28,
      "componentType": 5126,
      "count": 17,
      "max": [
        1.0416699647903442
      ],
      "min": [
        0
      ],
      "type": "SCALAR"
    },
    {
      "bufferView": 29,
      "componentType": 5126,
      "count": 17,
      "max": [
        0.05055423825979233,
        0,
        0,
        1
      ],
      "min": [
        -0.02022906020283699,
        0,
        0,
        0.9987213015556335
      ],
      "type": "VEC4"
    },
    {
      "bufferView": 30,
      "componentType": 5126,
      "count": 6,
      "max": [
        1.0416699647903442
      ],
      "min": [
        0
      ],
      "type": "SCALAR"
    },
    {
      "bufferView": 31,
      "componentType": 5126,
      "count": 6,
      "max": [
        -4.0878400802612305,
        1.5,
        0.020269999280571938
      ],
      "min": [
        -4.8878397941589355,
        1.5,
        0.020269999280571938
      ],
      "type": "VEC3"
    },
    {
      "bufferView": 32,
      "componentType": 5126,
      "count": 17,
      "max": [
        1.0416699647903442
      ],
      "min": [
        0
      ],
      "type": "SCALAR"
    },
    {
      "bufferView": 33,
      "componentType": 5126,
      "count": 17,
      "max": [
        0.02022906020283699,
        0,
        0,
        1
      ],
      "min": [
        -0.05055423825979233,
        0,
        0,
        0.9987213015556335
      ],
      "type": "VEC4"
    },
    {
      "bufferView": 34,
      "componentType": 5126,
      "count": 6,
      "max": [
        1.0416699647903442
      ],
      "min": [
        0
      ],
      "type": "SCALAR"
    },
    {
      "bufferView": 35,
      "componentType": 5126,
      "count": 6,
      "max": [
        4.8878397941589355,
        1.5,
        -0.020269999280571938
      ],
      "min": [
        4.0878400802612305,
        1.5,
        -0.020269999280571938
      ],
      "type": "VEC3"
    },
    {
      "bufferView": 36,
      "componentType": 5126,
      "count": 18,
      "max": [
        1.0416699647903442
      ],
      "min": [
        0
      ],
      "type": "SCALAR"
    },
    {
      "bufferView": 37,
      "componentType": 5126,
      "count": 18,
      "max": [
        0.02336285449564457,
        0,
        0,
        1
      ],
      "min": [
        -0.2870147228240967,
        0,
        0,
        0.9579261541366577
      ],
      "type": "VEC4"
    },
    {
      "bufferView": 38,
      "componentType": 5126,
      "count": 6,
      "max": [
        1.0416699647903442
      ],
      "min": [
        0
      ],
      "type": "SCALAR"
    },
    {
      "bufferView": 39,
      "componentType": 5126,
      "count": 6,
      "max": [
        -2.5,
        7,
        1
      ],
      "min": [
        -2.5,
        6,
        -1
      ],
      "type": "VEC3"
    },
    {
      "bufferView": 40,
      "componentType": 5126,
      "count": 17,
      "max": [
        1.0416699647903442
      ],
      "min": [
        0
      ],
      "type": "SCALAR"
    },
    {
      "bufferView": 41,
      "componentType": 5126,
      "count": 17,
      "max": [
        0.08803906291723251,
        0,
        0,
        1
      ],
      "min": [
        -0.14820396900177002,
        0,
        0,
        0.9889568090438843
      ],
      "type": "VEC4"
    },
    {
      "bufferView": 42,
      "componentType": 5126,
      "count": 6,
      "max": [
        1.0416699647903442
      ],
      "min": [
        0
      ],
      "type": "SCALAR"
    },
    {
      "bufferView": 43,
      "componentType": 5126,
      "count": 6,
      "max": [
        2.5,
        7.927720069885254,
        0.4507400095462799
      ],
      "min": [
        2.5,
        6.927720069885254,
        -1.5492600202560425
      ],
      "type": "VEC3"
    }
  ],
  "materials": [
    {
      "pbrMetallicRoughness": {
        "metallicFactor": 0,
        "roughnessFactor": 1,
        "baseColorFactor": [
          0.8,
          0.8,
          0.8,
          1
        ]
      },
      "alphaMode": "MASK",
      "alphaCutoff": 0.05,
      "doubleSided": true
    }
  ],
  "meshes": [
    {
      "primitives": [
        {
          "mode": 4,
          "attributes": {
            "POSITION": 0,
            "NORMAL": 1,
            "TEXCOORD_0": 2
          },
          "indices": 3,
          "material": 0
        }
      ]
    },
    {
      "primitives": [
        {
          "mode": 4,
          "attributes": {
            "POSITION": 4,
            "NORMAL": 5,
            "TEXCOORD_0": 6
          },
          "indices": 7,
          "material": 0
        }
      ]
    },
    {
      "primitives": [
        {
          "mode": 4,
          "attributes": {
            "POSITION": 8,
            "NORMAL": 9,
            "TEXCOORD_0": 10
          },
          "indices": 11,
          "material": 0
        }
      ]
    },
    {
      "primitives": [
        {
          "mode": 4,
          "attributes": {
            "POSITION": 12,
            "NORMAL": 13,
            "TEXCOORD_0": 14
          },
          "indices": 15,
          "material": 0
        }
      ]
    },
    {
      "primitives": [
        {
          "mode": 4,
          "attributes": {
            "POSITION": 16,
            "NORMAL": 17,
            "TEXCOORD_0": 18
          },
          "indices": 19,
          "material": 0
        }
      ]
    },
    {
      "primitives": [
        {
          "mode": 4,
          "attributes": {
            "POSITION": 20,
            "NORMAL": 21,
            "TEXCOORD_0": 22
          },
          "indices": 23,
          "material": 0
        }
      ]
    }
  ],
  "animations": [
    {
      "name": "animation",
      "samplers": [
        {
          "input": 24,
          "output": 25,
          "interpolation": "LINEAR"
        },
        {
          "input": 26,
          "output": 27,
          "interpolation": "LINEAR"
        },
        {
          "input": 28,
          "output": 29,
          "interpolation": "LINEAR"
        },
        {
          "input": 30,
          "output": 31,
          "interpolation": "LINEAR"
        },
        {
          "input": 32,
          "output": 33,
          "interpolation": "LINEAR"
        },
        {
          "input": 34,
          "output": 35,
          "interpolation": "LINEAR"
        },
        {
          "input": 36,
          "output": 37,
          "interpolation": "LINEAR"
        },
        {
          "input": 38,
          "output": 39,
          "interpolation": "LINEAR"
        },
        {
          "input": 40,
          "output": 41,
          "interpolation": "LINEAR"
        },
        {
          "input": 42,
          "output": 43,
          "interpolation": "LINEAR"
        }
      ],
      "channels": [
        {
          "sampler": 0,
          "target": {
            "node": 6,
            "path": "rotation"
          }
        },
        {
          "sampler": 1,
          "target": {
            "node": 6,
            "path": "translation"
          }
        },
        {
          "sampler": 2,
          "target": {
            "node": 1,
            "path": "rotation"
          }
        },
        {
          "sampler": 3,
          "target": {
            "node": 1,
            "path": "translation"
          }
        },
        {
          "sampler": 4,
          "target": {
            "node": 3,
            "path": "rotation"
          }
        },
        {
          "sampler": 5,
          "target": {
            "node": 3,
            "path": "translation"
          }
        },
        {
          "sampler": 6,
          "target": {
            "node": 8,
            "path": "rotation"
          }
        },
        {
          "sampler": 7,
          "target": {
            "node": 8,
            "path": "translation"
          }
        },
        {
          "sampler": 8,
          "target": {
            "node": 10,
            "path": "rotation"
          }
        },
        {
          "sampler": 9,
          "target": {
            "node": 10,
            "path": "translation"
          }
        }
      ]
    }
  ]
}