{"asset":{"version":"2.0","generator":"Blockbench 4.12.6 glTF exporter"},"scenes":[{"nodes":[14],"name":"blockbench_export"}],"scene":0,"nodes":[{"rotation":[-0.6087614290087207,0,0,0.7933533402912352],"translation":[0,-0.35714285714285715,0.35714285714285715],"name":"cannon","mesh":0},{"translation":[0,1.7857142857142858,-2.142857142857143],"name":"cannon","children":[0]},{"rotation":[0,0,-0.13052619222005157,0.9914448613738104],"translation":[-0.7142857142857143,0.08997142857142862,0.17857142857142858],"name":"leg","mesh":1},{"translation":[-3.2142857142857144,-0.08997142857142862,1.9642857142857144],"name":"back_left","children":[2]},{"rotation":[0,0,-0.13052619222005157,0.9914448613738104],"translation":[-0.7142857142857143,0.08997142857142862,-0.17857142857142858],"name":"leg","mesh":2},{"translation":[-3.2142857142857144,-0.08997142857142862,-1.9642857142857144],"name":"front_left","children":[4]},{"rotation":[0,0,0.13052619222005157,0.9914448613738104],"translation":[0.7142857142857143,0.08997142857142862,-0.17857142857142858],"name":"leg","mesh":3},{"translation":[3.2142857142857144,-0.08997142857142862,1.9642857142857144],"name":"back_right","children":[6]},{"rotation":[0,0,0.13052619222005157,0.9914448613738104],"translation":[0.7142857142857143,0.08997142857142862,-0.17857142857142858],"name":"leg","mesh":4},{"translation":[3.2142857142857144,-0.08997142857142862,-1.9642857142857144],"name":"front_right","children":[8]},{"translation":[0,-2.5,0],"name":"torso","mesh":5},{"name":"torso","children":[10]},{"translation":[0,0.35714285714285715,0],"name":"body","children":[1,3,5,7,9,11]},{"translation":[0,2.5,0],"name":"root","children":[12]},{"children":[13]}],"bufferViews":[{"buffer":0,"byteOffset":0,"byteLength":288,"target":34962,"byteStride":12},{"buffer":0,"byteOffset":288,"byteLength":288,"target":34962,"byteStride":12},{"buffer":0,"byteOffset":576,"byteLength":192,"target":34962,"byteStride":8},{"buffer":0,"byteOffset":768,"byteLength":72,"target":34963},{"buffer":0,"byteOffset":840,"byteLength":288,"target":34962,"byteStride":12},{"buffer":0,"byteOffset":1128,"byteLength":288,"target":34962,"byteStride":12},{"buffer":0,"byteOffset":1416,"byteLength":192,"target":34962,"byteStride":8},{"buffer":0,"byteOffset":1608,"byteLength":72,"target":34963},{"buffer":0,"byteOffset":1680,"byteLength":288,"target":34962,"byteStride":12},{"buffer":0,"byteOffset":1968,"byteLength":288,"target":34962,"byteStride":12},{"buffer":0,"byteOffset":2256,"byteLength":192,"target":34962,"byteStride":8},{"buffer":0,"byteOffset":2448,"byteLength":72,"target":34963},{"buffer":0,"byteOffset":2520,"byteLength":288,"target":34962,"byteStride":12},{"buffer":0,"byteOffset":2808,"byteLength":288,"target":34962,"byteStride":12},{"buffer":0,"byteOffset":3096,"byteLength":192,"target":34962,"byteStride":8},{"buffer":0,"byteOffset":3288,"byteLength":72,"target":34963},{"buffer":0,"byteOffset":3360,"byteLength":288,"target":34962,"byteStride":12},{"buffer":0,"byteOffset":3648,"byteLength":288,"target":34962,"byteStride":12},{"buffer":0,"byteOffset":3936,"byteLength":192,"target":34962,"byteStride":8},{"buffer":0,"byteOffset":4128,"byteLength":72,"target":34963},{"buffer":0,"byteOffset":4200,"byteLength":288,"target":34962,"byteStride":12},{"buffer":0,"byteOffset":4488,"byteLength":288,"target":34962,"byteStride":12},{"buffer":0,"byteOffset":4776,"byteLength":192,"target":34962,"byteStride":8},{"buffer":0,"byteOffset":4968,"byteLength":72,"target":34963},{"buffer":0,"byteOffset":5040,"byteLength":20},{"buffer":0,"byteOffset":5060,"byteLength":80},{"buffer":0,"byteOffset":5140,"byteLength":20},{"buffer":0,"byteOffset":5160,"byteLength":60},{"buffer":0,"byteOffset":5220,"byteLength":64},{"buffer":0,"byteOffset":5284,"byteLength":256},{"buffer":0,"byteOffset":5540,"byteLength":20},{"buffer":0,"byteOffset":5560,"byteLength":60},{"buffer":0,"byteOffset":5620,"byteLength":64},{"buffer":0,"byteOffset":5684,"byteLength":256},{"buffer":0,"byteOffset":5940,"byteLength":20},{"buffer":0,"byteOffset":5960,"byteLength":60},{"buffer":0,"byteOffset":6020,"byteLength":64},{"buffer":0,"byteOffset":6084,"byteLength":256},{"buffer":0,"byteOffset":6340,"byteLength":20},{"buffer":0,"byteOffset":6360,"byteLength":60},{"buffer":0,"byteOffset":6420,"byteLength":64},{"buffer":0,"byteOffset":6484,"byteLength":256},{"buffer":0,"byteOffset":6740,"byteLength":20},{"buffer":0,"byteOffset":6760,"byteLength":60}],"buffers":[{"byteLength":6820,"uri":"data:application/octet-stream;base64,"}],"accessors":[{"bufferView":0,"componentType":5126,"count":24,"max":[0.3571428656578064,2.726884365081787,0.5227511525154114],"min":[-0.3571428656578064,0.9411700367927551,-0.19153451919555664],"type":"VEC3"},{"bufferView":1,"componentType":5126,"count":24,"max":[1,1,1],"min":[-1,-1,-1],"type":"VEC3"},{"bufferView":2,"componentType":5126,"count":24,"max":[0.75,0.78125],"min":[0.1875,0.1875],"type":"VEC2"},{"bufferView":3,"componentType":5123,"count":36,"max":[23],"min":[0],"type":"SCALAR"},{"bufferView":4,"componentType":5126,"count":24,"max":[1.2857142686843872,0,0.3571428656578064],"min":[0.2142857164144516,-2.857142925262451,-0.7142857313156128],"type":"VEC3"},{"bufferView":5,"componentType":5126,"count":24,"max":[1,1,1],"min":[-1,-1,-1],"type":"VEC3"},{"bufferView":6,"componentType":5126,"count":24,"max":[0.6875,0.6875],"min":[0.5,0],"type":"VEC2"},{"bufferView":7,"componentType":5123,"count":36,"max":[23],"min":[0],"type":"SCALAR"},{"bufferView":8,"componentType":5126,"count":24,"max":[1.2857142686843872,0,0.7142857313156128],"min":[0.2142857164144516,-2.857142925262451,-0.3571428656578064],"type":"VEC3"},{"bufferView":9,"componentType":5126,"count":24,"max":[1,1,1],"min":[-1,-1,-1],"type":"VEC3"},{"bufferView":10,"componentType":5126,"count":24,"max":[0.75,0.75],"min":[0,0],"type":"VEC2"},{"bufferView":11,"componentType":5123,"count":36,"max":[23],"min":[0],"type":"SCALAR"},{"bufferView":12,"componentType":5126,"count":24,"max":[-0.2142857164144516,0,0.7142857313156128],"min":[-1.2857142686843872,-2.857142925262451,-0.3571428656578064],"type":"VEC3"},{"bufferView":13,"componentType":5126,"count":24,"max":[1,1,1],"min":[-1,-1,-1],"type":"VEC3"},{"bufferView":14,"componentType":5126,"count":24,"max":[0.75,0.75],"min":[0.125,0],"type":"VEC2"},{"bufferView":15,"componentType":5123,"count":36,"max":[23],"min":[0],"type":"SCALAR"},{"bufferView":16,"componentType":5126,"count":24,"max":[-0.2142857164144516,0,0.7142857313156128],"min":[-1.2857142686843872,-2.857142925262451,-0.3571428656578064],"type":"VEC3"},{"bufferView":17,"componentType":5126,"count":24,"max":[1,1,1],"min":[-1,-1,-1],"type":"VEC3"},{"bufferView":18,"componentType":5126,"count":24,"max":[0.75,0.75],"min":[0.0625,0.0625],"type":"VEC2"},{"bufferView":19,"componentType":5123,"count":36,"max":[23],"min":[0],"type":"SCALAR"},{"bufferView":20,"componentType":5126,"count":24,"max":[2.857142925262451,4.642857074737549,2.857142925262451],"min":[-2.857142925262451,0.3571428656578064,-2.857142925262451],"type":"VEC3"},{"bufferView":21,"componentType":5126,"count":24,"max":[1,1,1],"min":[-1,-1,-1],"type":"VEC3"},{"bufferView":22,"componentType":5126,"count":24,"max":[0.5,0.6875],"min":[0,0],"type":"VEC2"},{"bufferView":23,"componentType":5123,"count":36,"max":[23],"min":[0],"type":"SCALAR"},{"bufferView":24,"componentType":5126,"count":5,"max":[1],"min":[0],"type":"SCALAR"},{"bufferView":25,"componentType":5126,"count":5,"max":[0,0,0.021809693425893784,1],"min":[-0.021809693425893784,-0.0004758892173413187,-0.021809693425893784,0.9995241165161133],"type":"VEC4"},{"bufferView":26,"componentType":5126,"count":5,"max":[1],"min":[0],"type":"SCALAR"},{"bufferView":27,"componentType":5126,"count":5,"max":[0,0.3571428656578064,0],"min":[0,0.1785714328289032,0],"type":"VEC3"},{"bufferView":28,"componentType":5126,"count":16,"max":[0.9583333134651184],"min":[0],"type":"SCALAR"},{"bufferView":29,"componentType":5126,"count":16,"max":[0.20917607843875885,0,0,1],"min":[-0.20917607843875885,0,0,0.9778779745101929],"type":"VEC4"},{"bufferView":30,"componentType":5126,"count":5,"max":[1],"min":[0],"type":"SCALAR"},{"bufferView":31,"componentType":5126,"count":5,"max":[-3.2142856121063232,-0.08997143059968948,2.3214285373687744],"min":[-3.2142856121063232,-0.08997143059968948,1.9642857313156128],"type":"VEC3"},{"bufferView":32,"componentType":5126,"count":16,"max":[0.9583333134651184],"min":[0],"type":"SCALAR"},{"bufferView":33,"componentType":5126,"count":16,"max":[0.20917607843875885,0,0,1],"min":[-0.20917607843875885,0,0,0.9778779745101929],"type":"VEC4"},{"bufferView":34,"componentType":5126,"count":5,"max":[1],"min":[0],"type":"SCALAR"},{"bufferView":35,"componentType":5126,"count":5,"max":[-3.2142856121063232,-0.08997143059968948,-1.6071428060531616],"min":[-3.2142856121063232,-0.08997143059968948,-1.9642857313156128],"type":"VEC3"},{"bufferView":36,"componentType":5126,"count":16,"max":[0.9583333134651184],"min":[0],"type":"SCALAR"},{"bufferView":37,"componentType":5126,"count":16,"max":[0.20917607843875885,0,0,1],"min":[-0.20917607843875885,0,0,0.9778779745101929],"type":"VEC4"},{"bufferView":38,"componentType":5126,"count":5,"max":[1],"min":[0],"type":"SCALAR"},{"bufferView":39,"componentType":5126,"count":5,"max":[3.2142856121063232,-0.08997143059968948,2.3214285373687744],"min":[3.2142856121063232,-0.08997143059968948,1.6071428060531616],"type":"VEC3"},{"bufferView":40,"componentType":5126,"count":16,"max":[0.9583333134651184],"min":[0],"type":"SCALAR"},{"bufferView":41,"componentType":5126,"count":16,"max":[0.20917607843875885,0,0,1],"min":[-0.20917607843875885,0,0,0.9778779745101929],"type":"VEC4"},{"bufferView":42,"componentType":5126,"count":5,"max":[1],"min":[0],"type":"SCALAR"},{"bufferView":43,"componentType":5126,"count":5,"max":[3.2142856121063232,-0.08997143059968948,-1.6071428060531616],"min":[3.2142856121063232,-0.08997143059968948,-2.3214285373687744],"type":"VEC3"}],"materials":[{"pbrMetallicRoughness":{"metallicFactor":0,"roughnessFactor":1,"baseColorTexture":{"index":0}},"alphaMode":"MASK","alphaCutoff":0.05,"doubleSided":true}],"textures":[{"sampler":0,"source":0,"name":"scout_bot.png"}],"samplers":[{"magFilter":9728,"minFilter":9728,"wrapS":33071,"wrapT":33071}],"images":[{"mimeType":"image/png","name":"scout_bot.png","uri":"scout_bot.png"}],"meshes":[{"primitives":[{"mode":4,"attributes":{"POSITION":0,"NORMAL":1,"TEXCOORD_0":2},"indices":3,"material":0}]},{"primitives":[{"mode":4,"attributes":{"POSITION":4,"NORMAL":5,"TEXCOORD_0":6},"indices":7,"material":0}]},{"primitives":[{"mode":4,"attributes":{"POSITION":8,"NORMAL":9,"TEXCOORD_0":10},"indices":11,"material":0}]},{"primitives":[{"mode":4,"attributes":{"POSITION":12,"NORMAL":13,"TEXCOORD_0":14},"indices":15,"material":0}]},{"primitives":[{"mode":4,"attributes":{"POSITION":16,"NORMAL":17,"TEXCOORD_0":18},"indices":19,"material":0}]},{"primitives":[{"mode":4,"attributes":{"POSITION":20,"NORMAL":21,"TEXCOORD_0":22},"indices":23,"material":0}]}],"animations":[{"name":"animation","samplers":[{"input":24,"output":25,"interpolation":"LINEAR"},{"input":26,"output":27,"interpolation":"LINEAR"},{"input":28,"output":29,"interpolation":"LINEAR"},{"input":30,"output":31,"interpolation":"LINEAR"},{"input":32,"output":33,"interpolation":"LINEAR"},{"input":34,"output":35,"interpolation":"LINEAR"},{"input":36,"output":37,"interpolation":"LINEAR"},{"input":38,"output":39,"interpolation":"LINEAR"},{"input":40,"output":41,"interpolation":"LINEAR"},{"input":42,"output":43,"interpolation":"LINEAR"}],"channels":[{"sampler":0,"target":{"node":12,"path":"rotation"}},{"sampler":1,"target":{"node":12,"path":"translation"}},{"sampler":2,"target":{"node":3,"path":"rotation"}},{"sampler":3,"target":{"node":3,"path":"translation"}},{"sampler":4,"target":{"node":5,"path":"rotation"}},{"sampler":5,"target":{"node":5,"path":"translation"}},{"sampler":6,"target":{"node":7,"path":"rotation"}},{"sampler":7,"target":{"node":7,"path":"translation"}},{"sampler":8,"target":{"node":9,"path":"rotation"}},{"sampler":9,"target":{"node":9,"path":"translation"}}]}]}