{
  "asset": {
    "version": "2.0",
    "generator": "Blockbench 5.0.3 glTF exporter"
  },
  "scenes": [
    {
      "nodes": [
        8
      ],
      "name": "blockbench_export"
    }
  ],
  "scene": 0,
  "nodes": [
    {
      "rotation": [
        6.123233995736766e-17,
        -1,
        6.123233995736766e-17,
        3.749399456654644e-33
      ],
      "name": "cuboid",
      "mesh": 0
    },
    {
      "rotation": [
        6.123233995736766e-17,
        -1,
        6.123233995736766e-17,
        3.749399456654644e-33
      ],
      "translation": [
        0,
        -0.4190583333333331,
        0.09498333333333336
      ],
      "name": "cuboid",
      "mesh": 1
    },
    {
      "translation": [
        0,
        3.125,
        0.33333333333333337
      ],
      "name": "head",
      "children": [
        1
      ]
    },
    {
      "translation": [
        0,
        8.333333333333334,
        -1.375
      ],
      "name": "torso",
      "children": [
        0,
        2
      ]
    },
    {
      "rotation": [
        6.123233995736766e-17,
        -1,
        6.123233995736766e-17,
        3.749399456654644e-33
      ],
      "translation": [
        0.8333333333333334,
        0.4654833333333334,
        0.22855
      ],
      "name": "cuboid",
      "mesh": 2
    },
    {
      "translation": [
        2.291666666666667,
        7.867850000000001,
        -1.47855
      ],
      "name": "right_leg",
      "children": [
        4
      ]
    },
    {
      "rotation": [
        6.123233995736766e-17,
        -1,
        6.123233995736766e-17,
        3.749399456654644e-33
      ],
      "translation": [
        0,
        0.4654833333333334,
        0.020216666666666668
      ],
      "name": "cuboid",
      "mesh": 3
    },
    {
      "translation": [
        -3.125,
        7.867850000000001,
        -1.2702166666666668
      ],
      "name": "left_leg",
      "children": [
        6
      ]
    },
    {
      "translation": [
        0,
        -1.6666666666666667,
        1.25
      ],
      "name": "root",
      "children": [
        3,
        5,
        7
      ]
    }
  ],
  "bufferViews": [
    {
      "buffer": 0,
      "byteOffset": 0,
      "byteLength": 672,
      "target": 34962,
      "byteStride": 12
    },
    {
      "buffer": 0,
      "byteOffset": 672,
      "byteLength": 672,
      "target": 34962,
      "byteStride": 12
    },
    {
      "buffer": 0,
      "byteOffset": 1344,
      "byteLength": 448,
      "target": 34962,
      "byteStride": 8
    },
    {
      "buffer": 0,
      "byteOffset": 1792,
      "byteLength": 168,
      "target": 34963
    },
    {
      "buffer": 0,
      "byteOffset": 1960,
      "byteLength": 1728,
      "target": 34962,
      "byteStride": 12
    },
    {
      "buffer": 0,
      "byteOffset": 3688,
      "byteLength": 1728,
      "target": 34962,
      "byteStride": 12
    },
    {
      "buffer": 0,
      "byteOffset": 5416,
      "byteLength": 1152,
      "target": 34962,
      "byteStride": 8
    },
    {
      "buffer": 0,
      "byteOffset": 6568,
      "byteLength": 432,
      "target": 34963
    },
    {
      "buffer": 0,
      "byteOffset": 7000,
      "byteLength": 1248,
      "target": 34962,
      "byteStride": 12
    },
    {
      "buffer": 0,
      "byteOffset": 8248,
      "byteLength": 1248,
      "target": 34962,
      "byteStride": 12
    },
    {
      "buffer": 0,
      "byteOffset": 9496,
      "byteLength": 832,
      "target": 34962,
      "byteStride": 8
    },
    {
      "buffer": 0,
      "byteOffset": 10328,
      "byteLength": 312,
      "target": 34963
    },
    {
      "buffer": 0,
      "byteOffset": 10640,
      "byteLength": 1248,
      "target": 34962,
      "byteStride": 12
    },
    {
      "buffer": 0,
      "byteOffset": 11888,
      "byteLength": 1248,
      "target": 34962,
      "byteStride": 12
    },
    {
      "buffer": 0,
      "byteOffset": 13136,
      "byteLength": 832,
      "target": 34962,
      "byteStride": 8
    },
    {
      "buffer": 0,
      "byteOffset": 13968,
      "byteLength": 312,
      "target": 34963
    },
    {
      "buffer": 0,
      "byteOffset": 14280,
      "byteLength": 24
    },
    {
      "buffer": 0,
      "byteOffset": 14304,
      "byteLength": 96
    },
    {
      "buffer": 0,
      "byteOffset": 14400,
      "byteLength": 12
    },
    {
      "buffer": 0,
      "byteOffset": 14412,
      "byteLength": 36
    },
    {
      "buffer": 0,
      "byteOffset": 14448,
      "byteLength": 68
    },
    {
      "buffer": 0,
      "byteOffset": 14516,
      "byteLength": 272
    },
    {
      "buffer": 0,
      "byteOffset": 14788,
      "byteLength": 4
    },
    {
      "buffer": 0,
      "byteOffset": 14792,
      "byteLength": 12
    },
    {
      "buffer": 0,
      "byteOffset": 14804,
      "byteLength": 72
    },
    {
      "buffer": 0,
      "byteOffset": 14876,
      "byteLength": 288
    },
    {
      "buffer": 0,
      "byteOffset": 15164,
      "byteLength": 24
    },
    {
      "buffer": 0,
      "byteOffset": 15188,
      "byteLength": 72
    },
    {
      "buffer": 0,
      "byteOffset": 15260,
      "byteLength": 68
    },
    {
      "buffer": 0,
      "byteOffset": 15328,
      "byteLength": 272
    },
    {
      "buffer": 0,
      "byteOffset": 15600,
      "byteLength": 24
    },
    {
      "buffer": 0,
      "byteOffset": 15624,
      "byteLength": 72
    },
    {
      "buffer": 0,
      "byteOffset": 15696,
      "byteLength": 4
    },
    {
      "buffer": 0,
      "byteOffset": 15700,
      "byteLength": 16
    },
    {
      "buffer": 0,
      "byteOffset": 15716,
      "byteLength": 4
    },
    {
      "buffer": 0,
      "byteOffset": 15720,
      "byteLength": 12
    }
  ],
  "buffers": [
    {
      "byteLength": 15732,
      "uri": "data:application/octet-stream;base64,"
    }
  ],
  "accessors": [
    {
      "bufferView": 0,
      "componentType": 5126,
      "count": 56,
      "max": [
        2.9166667461395264,
        2.5,
        2.5833332538604736
      ],
      "min": [
        -2.9166667461395264,
        -2.5,
        -4.5
      ],
      "type": "VEC3"
    },
    {
      "bufferView": 1,
      "componentType": 5126,
      "count": 56,
      "max": [
        1,
        1,
        1
      ],
      "min": [
        -1,
        -1,
        -1
      ],
      "type": "VEC3"
    },
    {
      "bufferView": 2,
      "componentType": 5126,
      "count": 56,
      "max": [
        0.75,
        1
      ],
      "min": [
        0.375,
        0.375
      ],
      "type": "VEC2"
    },
    {
      "bufferView": 3,
      "componentType": 5123,
      "count": 84,
      "max": [
        55
      ],
      "min": [
        0
      ],
      "type": "SCALAR"
    },
    {
      "bufferView": 4,
      "componentType": 5126,
      "count": 144,
      "max": [
        2.5,
        3.127391815185547,
        5.303316593170166
      ],
      "min": [
        -2.5,
        -0.20594167709350586,
        -3.0300166606903076
      ],
      "type": "VEC3"
    },
    {
      "bufferView": 5,
      "componentType": 5126,
      "count": 144,
      "max": [
        1,
        1,
        1
      ],
      "min": [
        -1,
        -1,
        -1
      ],
      "type": "VEC3"
    },
    {
      "bufferView": 6,
      "componentType": 5126,
      "count": 144,
      "max": [
        0.6328125,
        0.8515625
      ],
      "min": [
        0,
        0
      ],
      "type": "VEC2"
    },
    {
      "bufferView": 7,
      "componentType": 5123,
      "count": 216,
      "max": [
        143
      ],
      "min": [
        0
      ],
      "type": "SCALAR"
    },
    {
      "bufferView": 8,
      "componentType": 5126,
      "count": 104,
      "max": [
        0.8333333134651184,
        1.25,
        1.875
      ],
      "min": [
        -0.8333333134651184,
        -6.666666507720947,
        -4.166666507720947
      ],
      "type": "VEC3"
    },
    {
      "bufferView": 9,
      "componentType": 5126,
      "count": 104,
      "max": [
        1,
        1,
        1
      ],
      "min": [
        -1,
        -1,
        -1
      ],
      "type": "VEC3"
    },
    {
      "bufferView": 10,
      "componentType": 5126,
      "count": 104,
      "max": [
        0.8828125,
        0.75
      ],
      "min": [
        0,
        0
      ],
      "type": "VEC2"
    },
    {
      "bufferView": 11,
      "componentType": 5123,
      "count": 156,
      "max": [
        103
      ],
      "min": [
        0
      ],
      "type": "SCALAR"
    },
    {
      "bufferView": 12,
      "componentType": 5126,
      "count": 104,
      "max": [
        0.8333333134651184,
        1.25,
        1.875
      ],
      "min": [
        -0.8333333134651184,
        -6.666666507720947,
        -4.166666507720947
      ],
      "type": "VEC3"
    },
    {
      "bufferView": 13,
      "componentType": 5126,
      "count": 104,
      "max": [
        1,
        1,
        1
      ],
      "min": [
        -1,
        -1,
        -1
      ],
      "type": "VEC3"
    },
    {
      "bufferView": 14,
      "componentType": 5126,
      "count": 104,
      "max": [
        1,
        1
      ],
      "min": [
        0,
        0.46875
      ],
      "type": "VEC2"
    },
    {
      "bufferView": 15,
      "componentType": 5123,
      "count": 156,
      "max": [
        103
      ],
      "min": [
        0
      ],
      "type": "SCALAR"
    },
    {
      "bufferView": 16,
      "componentType": 5126,
      "count": 6,
      "max": [
        1.0416699647903442
      ],
      "min": [
        0
      ],
      "type": "SCALAR"
    },
    {
      "bufferView": 17,
      "componentType": 5126,
      "count": 6,
      "max": [
        0,
        0.0004758892173413187,
        0.021809693425893784,
        1
      ],
      "min": [
        -0.021809693425893784,
        -0.0004758892173413187,
        -0.021809693425893784,
        0.9995241165161133
      ],
      "type": "VEC4"
    },
    {
      "bufferView": 18,
      "componentType": 5126,
      "count": 3,
      "max": [
        1.0416699647903442
      ],
      "min": [
        0
      ],
      "type": "SCALAR"
    },
    {
      "bufferView": 19,
      "componentType": 5126,
      "count": 3,
      "max": [
        0,
        8.333333015441895,
        -1.375
      ],
      "min": [
        0,
        8.333333015441895,
        -1.375
      ],
      "type": "VEC3"
    },
    {
      "bufferView": 20,
      "componentType": 5126,
      "count": 17,
      "max": [
        1
      ],
      "min": [
        0
      ],
      "type": "SCALAR"
    },
    {
      "bufferView": 21,
      "componentType": 5126,
      "count": 17,
      "max": [
        0,
        0,
        0.03358688950538635,
        1
      ],
      "min": [
        0,
        0,
        -0.030848458409309387,
        0.9994357824325562
      ],
      "type": "VEC4"
    },
    {
      "bufferView": 22,
      "componentType": 5126,
      "count": 1,
      "max": [
        0
      ],
      "min": [
        0
      ],
      "type": "SCALAR"
    },
    {
      "bufferView": 23,
      "componentType": 5126,
      "count": 1,
      "max": [
        0,
        3.125,
        0.3333333432674408
      ],
      "min": [
        0,
        3.125,
        0.3333333432674408
      ],
      "type": "VEC3"
    },
    {
      "bufferView": 24,
      "componentType": 5126,
      "count": 18,
      "max": [
        1.0416699647903442
      ],
      "min": [
        0
      ],
      "type": "SCALAR"
    },
    {
      "bufferView": 25,
      "componentType": 5126,
      "count": 18,
      "max": [
        0.02336285449564457,
        0,
        0,
        1
      ],
      "min": [
        -0.2870147228240967,
        0,
        0,
        0.9579261541366577
      ],
      "type": "VEC4"
    },
    {
      "bufferView": 26,
      "componentType": 5126,
      "count": 6,
      "max": [
        1.0416699647903442
      ],
      "min": [
        0
      ],
      "type": "SCALAR"
    },
    {
      "bufferView": 27,
      "componentType": 5126,
      "count": 6,
      "max": [
        -3.125,
        8.492850303649902,
        -0.6452166438102722
      ],
      "min": [
        -3.125,
        7.867849826812744,
        -1.895216703414917
      ],
      "type": "VEC3"
    },
    {
      "bufferView": 28,
      "componentType": 5126,
      "count": 17,
      "max": [
        1.0416699647903442
      ],
      "min": [
        0
      ],
      "type": "SCALAR"
    },
    {
      "bufferView": 29,
      "componentType": 5126,
      "count": 17,
      "max": [
        0.08803906291723251,
        0,
        0,
        1
      ],
      "min": [
        -0.14820396900177002,
        0,
        0,
        0.9889568090438843
      ],
      "type": "VEC4"
    },
    {
      "bufferView": 30,
      "componentType": 5126,
      "count": 6,
      "max": [
        1.0416699647903442
      ],
      "min": [
        0
      ],
      "type": "SCALAR"
    },
    {
      "bufferView": 31,
      "componentType": 5126,
      "count": 6,
      "max": [
        2.2916667461395264,
        8.492850303649902,
        -0.8535500168800354
      ],
      "min": [
        2.2916667461395264,
        7.867849826812744,
        -2.1035499572753906
      ],
      "type": "VEC3"
    },
    {
      "bufferView": 32,
      "componentType": 5126,
      "count": 1,
      "max": [
        1.0416699647903442
      ],
      "min": [
        1.0416699647903442
      ],
      "type": "SCALAR"
    },
    {
      "bufferView": 33,
      "componentType": 5126,
      "count": 1,
      "max": [
        0,
        0,
        0,
        1
      ],
      "min": [
        0,
        0,
        0,
        1
      ],
      "type": "VEC4"
    },
    {
      "bufferView": 34,
      "componentType": 5126,
      "count": 1,
      "max": [
        1.0416699647903442
      ],
      "min": [
        1.0416699647903442
      ],
      "type": "SCALAR"
    },
    {
      "bufferView": 35,
      "componentType": 5126,
      "count": 1,
      "max": [
        0,
        -1.6666666269302368,
        1.25
      ],
      "min": [
        0,
        -1.6666666269302368,
        1.25
      ],
      "type": "VEC3"
    }
  ],
  "materials": [
    {
      "pbrMetallicRoughness": {
        "metallicFactor": 0,
        "roughnessFactor": 1,
        "baseColorFactor": [
          0.8,
          0.8,
          0.8,
          1
        ]
      },
      "alphaMode": "MASK",
      "alphaCutoff": 0.05,
      "doubleSided": true
    }
  ],
  "meshes": [
    {
      "primitives": [
        {
          "mode": 4,
          "attributes": {
            "POSITION": 0,
            "NORMAL": 1,
            "TEXCOORD_0": 2
          },
          "indices": 3,
          "material": 0
        }
      ]
    },
    {
      "primitives": [
        {
          "mode": 4,
          "attributes": {
            "POSITION": 4,
            "NORMAL": 5,
            "TEXCOORD_0": 6
          },
          "indices": 7,
          "material": 0
        }
      ]
    },
    {
      "primitives": [
        {
          "mode": 4,
          "attributes": {
            "POSITION": 8,
            "NORMAL": 9,
            "TEXCOORD_0": 10
          },
          "indices": 11,
          "material": 0
        }
      ]
    },
    {
      "primitives": [
        {
          "mode": 4,
          "attributes": {
            "POSITION": 12,
            "NORMAL": 13,
            "TEXCOORD_0": 14
          },
          "indices": 15,
          "material": 0
        }
      ]
    }
  ],
  "animations": [
    {
      "name": "animation",
      "samplers": [
        {
          "input": 16,
          "output": 17,
          "interpolation": "LINEAR"
        },
        {
          "input": 18,
          "output": 19,
          "interpolation": "LINEAR"
        },
        {
          "input": 20,
          "output": 21,
          "interpolation": "LINEAR"
        },
        {
          "input": 22,
          "output": 23,
          "interpolation": "LINEAR"
        },
        {
          "input": 24,
          "output": 25,
          "interpolation": "LINEAR"
        },
        {
          "input": 26,
          "output": 27,
          "interpolation": "LINEAR"
        },
        {
          "input": 28,
          "output": 29,
          "interpolation": "LINEAR"
        },
        {
          "input": 30,
          "output": 31,
          "interpolation": "LINEAR"
        },
        {
          "input": 32,
          "output": 33,
          "interpolation": "LINEAR"
        },
        {
          "input": 34,
          "output": 35,
          "interpolation": "LINEAR"
        }
      ],
      "channels": [
        {
          "sampler": 0,
          "target": {
            "node": 3,
            "path": "rotation"
          }
        },
        {
          "sampler": 1,
          "target": {
            "node": 3,
            "path": "translation"
          }
        },
        {
          "sampler": 2,
          "target": {
            "node": 2,
            "path": "rotation"
          }
        },
        {
          "sampler": 3,
          "target": {
            "node": 2,
            "path": "translation"
          }
        },
        {
          "sampler": 4,
          "target": {
            "node": 7,
            "path": "rotation"
          }
        },
        {
          "sampler": 5,
          "target": {
            "node": 7,
            "path": "translation"
          }
        },
        {
          "sampler": 6,
          "target": {
            "node": 5,
            "path": "rotation"
          }
        },
        {
          "sampler": 7,
          "target": {
            "node": 5,
            "path": "translation"
          }
        },
        {
          "sampler": 8,
          "target": {
            "node": 8,
            "path": "rotation"
          }
        },
        {
          "sampler": 9,
          "target": {
            "node": 8,
            "path": "translation"
          }
        }
      ]
    }
  ]
}