{"asset":{"version":"2.0","generator":"Blockbench 5.0.3 glTF exporter"},"scenes":[{"nodes":[13],"name":"blockbench_export"}],"scene":0,"nodes":[{"translation":[0,8.571428571428571,-0.46875],"name":"cube","mesh":0},{"translation":[-1.0630857142857142,0.19624154838709781,-0.3432428571428572],"name":"cube","mesh":1},{"translation":[-3.2313142857142862,-0.19624154838709781,0.17914285714285716],"name":"left_arm","children":[1]},{"translation":[1.0797714285714286,0.19624154838709781,-0.7003857142857143],"name":"cube","mesh":2},{"translation":[3.1972571428571426,-0.19624154838709781,0.5362857142857143],"name":"right_arm","children":[3]},{"translation":[-0.008685714285714286,11.785714285714286,-0.014471428571428573],"name":"arms","children":[2,4]},{"translation":[0,7.142857142857143,0],"name":"head","children":[0,5]},{"translation":[0,-2.571428571428571,0.17857142857142858],"name":"cube","mesh":3},{"rotation":[6.123233995736766e-17,1,-6.123233995736766e-17,3.749399456654644e-33],"translation":[-1.25,-1.0714285714285714,-0.10661428571428568],"name":"cuboid","mesh":4},{"translation":[-1.7857142857142858,-2.142857142857143,-0.35714285714285715],"name":"left_leg","children":[8]},{"rotation":[6.123233995736766e-17,-1,6.123233995736766e-17,3.749399456654644e-33],"translation":[1.25,0.051628571428570885,-0.07142857142857141],"name":"cuboid","mesh":5},{"translation":[1.7857142857142858,-2.194485714285714,-0.3923285714285714],"name":"right_leg","children":[10]},{"translation":[0,11.428571428571429,0],"name":"legs","children":[7,9,11]},{"translation":[0,-2.142857142857143,0],"name":"root","children":[6,12]}],"bufferViews":[{"buffer":0,"byteOffset":0,"byteLength":288,"target":34962,"byteStride":12},{"buffer":0,"byteOffset":288,"byteLength":288,"target":34962,"byteStride":12},{"buffer":0,"byteOffset":576,"byteLength":192,"target":34962,"byteStride":8},{"buffer":0,"byteOffset":768,"byteLength":72,"target":34963},{"buffer":0,"byteOffset":840,"byteLength":768,"target":34962,"byteStride":12},{"buffer":0,"byteOffset":1608,"byteLength":768,"target":34962,"byteStride":12},{"buffer":0,"byteOffset":2376,"byteLength":512,"target":34962,"byteStride":8},{"buffer":0,"byteOffset":2888,"byteLength":192,"target":34963},{"buffer":0,"byteOffset":3080,"byteLength":768,"target":34962,"byteStride":12},{"buffer":0,"byteOffset":3848,"byteLength":768,"target":34962,"byteStride":12},{"buffer":0,"byteOffset":4616,"byteLength":512,"target":34962,"byteStride":8},{"buffer":0,"byteOffset":5128,"byteLength":192,"target":34963},{"buffer":0,"byteOffset":5320,"byteLength":864,"target":34962,"byteStride":12},{"buffer":0,"byteOffset":6184,"byteLength":864,"target":34962,"byteStride":12},{"buffer":0,"byteOffset":7048,"byteLength":576,"target":34962,"byteStride":8},{"buffer":0,"byteOffset":7624,"byteLength":216,"target":34963},{"buffer":0,"byteOffset":7840,"byteLength":1248,"target":34962,"byteStride":12},{"buffer":0,"byteOffset":9088,"byteLength":1248,"target":34962,"byteStride":12},{"buffer":0,"byteOffset":10336,"byteLength":832,"target":34962,"byteStride":8},{"buffer":0,"byteOffset":11168,"byteLength":312,"target":34963},{"buffer":0,"byteOffset":11480,"byteLength":1248,"target":34962,"byteStride":12},{"buffer":0,"byteOffset":12728,"byteLength":1248,"target":34962,"byteStride":12},{"buffer":0,"byteOffset":13976,"byteLength":832,"target":34962,"byteStride":8},{"buffer":0,"byteOffset":14808,"byteLength":312,"target":34963},{"buffer":0,"byteOffset":15120,"byteLength":20},{"buffer":0,"byteOffset":15140,"byteLength":80},{"buffer":0,"byteOffset":15220,"byteLength":8},{"buffer":0,"byteOffset":15228,"byteLength":24},{"buffer":0,"byteOffset":15252,"byteLength":72},{"buffer":0,"byteOffset":15324,"byteLength":288},{"buffer":0,"byteOffset":15612,"byteLength":24},{"buffer":0,"byteOffset":15636,"byteLength":72},{"buffer":0,"byteOffset":15708,"byteLength":72},{"buffer":0,"byteOffset":15780,"byteLength":288},{"buffer":0,"byteOffset":16068,"byteLength":24},{"buffer":0,"byteOffset":16092,"byteLength":72},{"buffer":0,"byteOffset":16164,"byteLength":72},{"buffer":0,"byteOffset":16236,"byteLength":288},{"buffer":0,"byteOffset":16524,"byteLength":24},{"buffer":0,"byteOffset":16548,"byteLength":72},{"buffer":0,"byteOffset":16620,"byteLength":68},{"buffer":0,"byteOffset":16688,"byteLength":272},{"buffer":0,"byteOffset":16960,"byteLength":24},{"buffer":0,"byteOffset":16984,"byteLength":72}],"buffers":[{"byteLength":17056,"uri":"data:application/octet-stream;base64,"}],"accessors":[{"bufferView":0,"componentType":5126,"count":24,"max":[3.2142856121063232,4.404759883880615,2.075892925262451],"min":[-3.2142856121063232,-3.452383041381836,-2.2098214626312256],"type":"VEC3"},{"bufferView":1,"componentType":5126,"count":24,"max":[1,1,1],"min":[-1,-1,-1],"type":"VEC3"},{"bufferView":2,"componentType":5126,"count":24,"max":[0.375,0.390625],"min":[0,0],"type":"VEC2"},{"bufferView":3,"componentType":5123,"count":36,"max":[23],"min":[0],"type":"SCALAR"},{"bufferView":4,"componentType":5126,"count":64,"max":[1.0887999534606934,1.2162142992019653,1.1003856658935547],"min":[-1.0540571212768555,-6.462357521057129,-1.0424714088439941],"type":"VEC3"},{"bufferView":5,"componentType":5126,"count":64,"max":[1,1,1],"min":[-1,-1,-1],"type":"VEC3"},{"bufferView":6,"componentType":5126,"count":64,"max":[0.6875,0.609375],"min":[0,0.09375],"type":"VEC2"},{"bufferView":7,"componentType":5123,"count":96,"max":[63],"min":[0],"type":"SCALAR"},{"bufferView":8,"componentType":5126,"count":64,"max":[1.0887999534606934,1.2162142992019653,1.1003856658935547],"min":[-1.0540571212768555,-6.462357521057129,-1.0424714088439941],"type":"VEC3"},{"bufferView":9,"componentType":5126,"count":64,"max":[1,1,1],"min":[-1,-1,-1],"type":"VEC3"},{"bufferView":10,"componentType":5126,"count":64,"max":[0.6875,0.609375],"min":[0,0.2109375],"type":"VEC2"},{"bufferView":11,"componentType":5123,"count":96,"max":[63],"min":[0],"type":"SCALAR"},{"bufferView":12,"componentType":5126,"count":72,"max":[3.2142856121063232,3.452385902404785,1.6071428060531616],"min":[-3.2142856121063232,0,-2.857142925262451],"type":"VEC3"},{"bufferView":13,"componentType":5126,"count":72,"max":[1,1,1],"min":[-1,-1,-1],"type":"VEC3"},{"bufferView":14,"componentType":5126,"count":72,"max":[0.625,0.2265625],"min":[0.140625,0.015625],"type":"VEC2"},{"bufferView":15,"componentType":5123,"count":108,"max":[71],"min":[0],"type":"SCALAR"},{"bufferView":16,"componentType":5126,"count":104,"max":[1.25,2.158771514892578,1.589814305305481],"min":[-1.25,-6.055514335632324,-3.588757276535034],"type":"VEC3"},{"bufferView":17,"componentType":5126,"count":104,"max":[1,1,1],"min":[-1,-1,-1],"type":"VEC3"},{"bufferView":18,"componentType":5126,"count":104,"max":[0.6364136934280396,1.0039561986923218],"min":[0,0],"type":"VEC2"},{"bufferView":19,"componentType":5123,"count":156,"max":[103],"min":[0],"type":"SCALAR"},{"bufferView":20,"componentType":5126,"count":104,"max":[1.25,1.0873428583145142,1.589814305305481],"min":[-1.25,-7.126943111419678,-3.588757276535034],"type":"VEC3"},{"bufferView":21,"componentType":5126,"count":104,"max":[1,1,1],"min":[-1,-1,-1],"type":"VEC3"},{"bufferView":22,"componentType":5126,"count":104,"max":[0.6364136934280396,1.0039561986923218],"min":[0,0],"type":"VEC2"},{"bufferView":23,"componentType":5123,"count":156,"max":[103],"min":[0],"type":"SCALAR"},{"bufferView":24,"componentType":5126,"count":5,"max":[1],"min":[0],"type":"SCALAR"},{"bufferView":25,"componentType":5126,"count":5,"max":[0,0.0004758892173413187,0.021809693425893784,1],"min":[-0.021809693425893784,-0.0004758892173413187,-0.021809693425893784,0.9995241165161133],"type":"VEC4"},{"bufferView":26,"componentType":5126,"count":2,"max":[1],"min":[0],"type":"SCALAR"},{"bufferView":27,"componentType":5126,"count":2,"max":[0,7.142857074737549,0],"min":[0,7.142857074737549,0],"type":"VEC3"},{"bufferView":28,"componentType":5126,"count":18,"max":[1.0416666269302368],"min":[0],"type":"SCALAR"},{"bufferView":29,"componentType":5126,"count":18,"max":[0.16778843104839325,0,0,1],"min":[-0.16778843104839325,0,0,0.9858230352401733],"type":"VEC4"},{"bufferView":30,"componentType":5126,"count":6,"max":[1.0416699647903442],"min":[0],"type":"SCALAR"},{"bufferView":31,"componentType":5126,"count":6,"max":[-2.9456000328063965,-0.19624154269695282,0.17914286255836487],"min":[-3.517028570175171,-0.19624154269695282,0.17914286255836487],"type":"VEC3"},{"bufferView":32,"componentType":5126,"count":18,"max":[1.0416666269302368],"min":[0],"type":"SCALAR"},{"bufferView":33,"componentType":5126,"count":18,"max":[0.16778843104839325,0,0,1],"min":[-0.16778843104839325,0,0,0.9858230352401733],"type":"VEC4"},{"bufferView":34,"componentType":5126,"count":6,"max":[1.0416699647903442],"min":[0],"type":"SCALAR"},{"bufferView":35,"componentType":5126,"count":6,"max":[3.482971429824829,-0.19624154269695282,0.5362856984138489],"min":[2.9115428924560547,-0.19624154269695282,0.5362856984138489],"type":"VEC3"},{"bufferView":36,"componentType":5126,"count":18,"max":[1.0416699647903442],"min":[0],"type":"SCALAR"},{"bufferView":37,"componentType":5126,"count":18,"max":[0.02336285449564457,0,0,1],"min":[-0.2870147228240967,0,0,0.9579261541366577],"type":"VEC4"},{"bufferView":38,"componentType":5126,"count":6,"max":[1.0416699647903442],"min":[0],"type":"SCALAR"},{"bufferView":39,"componentType":5126,"count":6,"max":[-1.7857142686843872,-1.4285714626312256,0.3571428656578064],"min":[-1.7857142686843872,-2.142857074737549,-1.0714285373687744],"type":"VEC3"},{"bufferView":40,"componentType":5126,"count":17,"max":[1.0416699647903442],"min":[0],"type":"SCALAR"},{"bufferView":41,"componentType":5126,"count":17,"max":[0.08803906291723251,0,0,1],"min":[-0.14820396900177002,0,0,0.9889568090438843],"type":"VEC4"},{"bufferView":42,"componentType":5126,"count":6,"max":[1.0416699647903442],"min":[0],"type":"SCALAR"},{"bufferView":43,"componentType":5126,"count":6,"max":[1.7857142686843872,-1.4802000522613525,0.32195714116096497],"min":[1.7857142686843872,-2.194485664367676,-1.1066142320632935],"type":"VEC3"}],"materials":[{"pbrMetallicRoughness":{"metallicFactor":0,"roughnessFactor":1,"baseColorTexture":{"index":0}},"alphaMode":"MASK","alphaCutoff":0.05,"doubleSided":true}],"textures":[{"sampler":0,"source":0,"name":"texture"}],"samplers":[{"magFilter":9728,"minFilter":9728,"wrapS":33071,"wrapT":33071}],"images":[{"mimeType":"image/png","name":"texture","uri":"texture.png"}],"meshes":[{"primitives":[{"mode":4,"attributes":{"POSITION":0,"NORMAL":1,"TEXCOORD_0":2},"indices":3,"material":0}]},{"primitives":[{"mode":4,"attributes":{"POSITION":4,"NORMAL":5,"TEXCOORD_0":6},"indices":7,"material":0}]},{"primitives":[{"mode":4,"attributes":{"POSITION":8,"NORMAL":9,"TEXCOORD_0":10},"indices":11,"material":0}]},{"primitives":[{"mode":4,"attributes":{"POSITION":12,"NORMAL":13,"TEXCOORD_0":14},"indices":15,"material":0}]},{"primitives":[{"mode":4,"attributes":{"POSITION":16,"NORMAL":17,"TEXCOORD_0":18},"indices":19,"material":0}]},{"primitives":[{"mode":4,"attributes":{"POSITION":20,"NORMAL":21,"TEXCOORD_0":22},"indices":23,"material":0}]}],"animations":[{"name":"animation","samplers":[{"input":24,"output":25,"interpolation":"LINEAR"},{"input":26,"output":27,"interpolation":"LINEAR"},{"input":28,"output":29,"interpolation":"LINEAR"},{"input":30,"output":31,"interpolation":"LINEAR"},{"input":32,"output":33,"interpolation":"LINEAR"},{"input":34,"output":35,"interpolation":"LINEAR"},{"input":36,"output":37,"interpolation":"LINEAR"},{"input":38,"output":39,"interpolation":"LINEAR"},{"input":40,"output":41,"interpolation":"LINEAR"},{"input":42,"output":43,"interpolation":"LINEAR"}],"channels":[{"sampler":0,"target":{"node":6,"path":"rotation"}},{"sampler":1,"target":{"node":6,"path":"translation"}},{"sampler":2,"target":{"node":2,"path":"rotation"}},{"sampler":3,"target":{"node":2,"path":"translation"}},{"sampler":4,"target":{"node":4,"path":"rotation"}},{"sampler":5,"target":{"node":4,"path":"translation"}},{"sampler":6,"target":{"node":9,"path":"rotation"}},{"sampler":7,"target":{"node":9,"path":"translation"}},{"sampler":8,"target":{"node":11,"path":"rotation"}},{"sampler":9,"target":{"node":11,"path":"translation"}}]}]}