{"asset":{"version":"2.0","generator":"Blockbench 4.12.6 glTF exporter"},"scenes":[{"nodes":[3],"name":"blockbench_export"}],"scene":0,"nodes":[{"translation":[0,12.5,0],"name":"cuboid","mesh":0},{"name":"torso","children":[0]},{"name":"root","children":[1]},{"children":[2]}],"bufferViews":[{"buffer":0,"byteOffset":0,"byteLength":6720,"target":34962,"byteStride":12},{"buffer":0,"byteOffset":6720,"byteLength":6720,"target":34962,"byteStride":12},{"buffer":0,"byteOffset":13440,"byteLength":4480,"target":34962,"byteStride":8},{"buffer":0,"byteOffset":17920,"byteLength":1680,"target":34963}],"buffers":[{"byteLength":19600,"uri":"data:application/octet-stream;base64,"}],"accessors":[{"bufferView":0,"componentType":5126,"count":560,"max":[6,13.75,4],"min":[-6,-5.25,-4],"type":"VEC3"},{"bufferView":1,"componentType":5126,"count":560,"max":[1,1,1],"min":[-1,-1,-1],"type":"VEC3"},{"bufferView":2,"componentType":5126,"count":560,"max":[0.125,0.125],"min":[0,0],"type":"VEC2"},{"bufferView":3,"componentType":5123,"count":840,"max":[559],"min":[0],"type":"SCALAR"}],"materials":[{"pbrMetallicRoughness":{"metallicFactor":0,"roughnessFactor":1},"alphaMode":"MASK","alphaCutoff":0.05,"doubleSided":true}],"meshes":[{"primitives":[{"mode":4,"attributes":{"POSITION":0,"NORMAL":1,"TEXCOORD_0":2},"indices":3,"material":0}]}]}