{"asset":{"version":"2.0","generator":"Blockbench 5.0.3 glTF exporter"},"scenes":[{"nodes":[13],"name":"blockbench_export"}],"scene":0,"nodes":[{"translation":[0,11.600000000000001,-0.65625],"name":"cube","mesh":0},{"translation":[0.011680000000000135,1.274738167741937,0.019459999999999977],"name":"cube","mesh":1},{"translation":[-4.523840000000001,4.225261832258063,-0.24919999999999998],"name":"left_arm","children":[1]},{"translation":[0.011680000000000135,0.27473816774193693,0.019459999999999977],"name":"cube","mesh":2},{"translation":[4.476159999999999,5.225261832258063,-0.24919999999999998],"name":"right_arm","children":[3]},{"translation":[-0.01216,8.5,-0.02026],"name":"arms","children":[2,4]},{"translation":[0,10,0],"name":"head","children":[0,5]},{"translation":[0,8.5,0.25],"name":"cube","mesh":3},{"rotation":[6.123233995736766e-17,1,-6.123233995736766e-17,3.749399456654644e-33],"translation":[-0.25,-1.5,-0.14925999999999995],"name":"cuboid","mesh":4},{"translation":[-2.5,9,-0.5],"name":"left_leg","children":[8]},{"rotation":[6.123233995736766e-17,-1,6.123233995736766e-17,3.749399456654644e-33],"translation":[0.25,0.07227999999999923,-0.09999999999999998],"name":"cuboid","mesh":5},{"translation":[2.5,8.92772,-0.54926],"name":"right_leg","children":[10]},{"translation":[0,4,0],"name":"legs","children":[7,9,11]},{"translation":[0,-3,0],"name":"root","children":[6,12]}],"bufferViews":[{"buffer":0,"byteOffset":0,"byteLength":288,"target":34962,"byteStride":12},{"buffer":0,"byteOffset":288,"byteLength":288,"target":34962,"byteStride":12},{"buffer":0,"byteOffset":576,"byteLength":192,"target":34962,"byteStride":8},{"buffer":0,"byteOffset":768,"byteLength":72,"target":34963},{"buffer":0,"byteOffset":840,"byteLength":768,"target":34962,"byteStride":12},{"buffer":0,"byteOffset":1608,"byteLength":768,"target":34962,"byteStride":12},{"buffer":0,"byteOffset":2376,"byteLength":512,"target":34962,"byteStride":8},{"buffer":0,"byteOffset":2888,"byteLength":192,"target":34963},{"buffer":0,"byteOffset":3080,"byteLength":768,"target":34962,"byteStride":12},{"buffer":0,"byteOffset":3848,"byteLength":768,"target":34962,"byteStride":12},{"buffer":0,"byteOffset":4616,"byteLength":512,"target":34962,"byteStride":8},{"buffer":0,"byteOffset":5128,"byteLength":192,"target":34963},{"buffer":0,"byteOffset":5320,"byteLength":864,"target":34962,"byteStride":12},{"buffer":0,"byteOffset":6184,"byteLength":864,"target":34962,"byteStride":12},{"buffer":0,"byteOffset":7048,"byteLength":576,"target":34962,"byteStride":8},{"buffer":0,"byteOffset":7624,"byteLength":216,"target":34963},{"buffer":0,"byteOffset":7840,"byteLength":1248,"target":34962,"byteStride":12},{"buffer":0,"byteOffset":9088,"byteLength":1248,"target":34962,"byteStride":12},{"buffer":0,"byteOffset":10336,"byteLength":832,"target":34962,"byteStride":8},{"buffer":0,"byteOffset":11168,"byteLength":312,"target":34963},{"buffer":0,"byteOffset":11480,"byteLength":1248,"target":34962,"byteStride":12},{"buffer":0,"byteOffset":12728,"byteLength":1248,"target":34962,"byteStride":12},{"buffer":0,"byteOffset":13976,"byteLength":832,"target":34962,"byteStride":8},{"buffer":0,"byteOffset":14808,"byteLength":312,"target":34963},{"buffer":0,"byteOffset":15120,"byteLength":20},{"buffer":0,"byteOffset":15140,"byteLength":80},{"buffer":0,"byteOffset":15220,"byteLength":8},{"buffer":0,"byteOffset":15228,"byteLength":24},{"buffer":0,"byteOffset":15252,"byteLength":72},{"buffer":0,"byteOffset":15324,"byteLength":288},{"buffer":0,"byteOffset":15612,"byteLength":24},{"buffer":0,"byteOffset":15636,"byteLength":72},{"buffer":0,"byteOffset":15708,"byteLength":72},{"buffer":0,"byteOffset":15780,"byteLength":288},{"buffer":0,"byteOffset":16068,"byteLength":24},{"buffer":0,"byteOffset":16092,"byteLength":72},{"buffer":0,"byteOffset":16164,"byteLength":72},{"buffer":0,"byteOffset":16236,"byteLength":288},{"buffer":0,"byteOffset":16524,"byteLength":24},{"buffer":0,"byteOffset":16548,"byteLength":72},{"buffer":0,"byteOffset":16620,"byteLength":68},{"buffer":0,"byteOffset":16688,"byteLength":272},{"buffer":0,"byteOffset":16960,"byteLength":24},{"buffer":0,"byteOffset":16984,"byteLength":72}],"buffers":[{"byteLength":17056,"uri":"data:application/octet-stream;base64,"}],"accessors":[{"bufferView":0,"componentType":5126,"count":24,"max":[3,4.625007152557373,2.90625],"min":[-3,-4.291679382324219,-3.09375],"type":"VEC3"},{"bufferView":1,"componentType":5126,"count":24,"max":[1,1,1],"min":[-1,-1,-1],"type":"VEC3"},{"bufferView":2,"componentType":5126,"count":24,"max":[0.375,0.390625],"min":[0,0],"type":"VEC2"},{"bufferView":3,"componentType":5123,"count":36,"max":[23],"min":[0],"type":"SCALAR"},{"bufferView":4,"componentType":5126,"count":64,"max":[1.5243200063705444,1.7027000188827515,1.5405399799346924],"min":[-1.4756799936294556,-10.047300338745117,-1.4594600200653076],"type":"VEC3"},{"bufferView":5,"componentType":5126,"count":64,"max":[1,1,1],"min":[-1,-1,-1],"type":"VEC3"},{"bufferView":6,"componentType":5126,"count":64,"max":[0.6875,0.609375],"min":[0,0.09375],"type":"VEC2"},{"bufferView":7,"componentType":5123,"count":96,"max":[63],"min":[0],"type":"SCALAR"},{"bufferView":8,"componentType":5126,"count":64,"max":[1.5243200063705444,1.7027000188827515,1.5405399799346924],"min":[-1.4756799936294556,-10.047300338745117,-1.4594600200653076],"type":"VEC3"},{"bufferView":9,"componentType":5126,"count":64,"max":[1,1,1],"min":[-1,-1,-1],"type":"VEC3"},{"bufferView":10,"componentType":5126,"count":64,"max":[0.6875,0.609375],"min":[0,0.2109375],"type":"VEC2"},{"bufferView":11,"componentType":5123,"count":96,"max":[63],"min":[0],"type":"SCALAR"},{"bufferView":12,"componentType":5126,"count":72,"max":[3,4.833340167999268,1.75],"min":[-3,0,-3.5],"type":"VEC3"},{"bufferView":13,"componentType":5126,"count":72,"max":[1,1,1],"min":[-1,-1,-1],"type":"VEC3"},{"bufferView":14,"componentType":5126,"count":72,"max":[0.625,0.2265625],"min":[0.140625,0.015625],"type":"VEC2"},{"bufferView":15,"componentType":5123,"count":108,"max":[71],"min":[0],"type":"SCALAR"},{"bufferView":16,"componentType":5126,"count":104,"max":[1.25,3.022279977798462,1.7257399559020996],"min":[-1.25,-8.477720260620117,-4.5242600440979],"type":"VEC3"},{"bufferView":17,"componentType":5126,"count":104,"max":[1,1,1],"min":[-1,-1,-1],"type":"VEC3"},{"bufferView":18,"componentType":5126,"count":104,"max":[0.6364136934280396,1.0039561986923218],"min":[0,0],"type":"VEC2"},{"bufferView":19,"componentType":5123,"count":156,"max":[103],"min":[0],"type":"SCALAR"},{"bufferView":20,"componentType":5126,"count":104,"max":[1.25,1.522279977798462,1.7257399559020996],"min":[-1.25,-9.977720260620117,-4.5242600440979],"type":"VEC3"},{"bufferView":21,"componentType":5126,"count":104,"max":[1,1,1],"min":[-1,-1,-1],"type":"VEC3"},{"bufferView":22,"componentType":5126,"count":104,"max":[0.6364136934280396,1.0039561986923218],"min":[0,0],"type":"VEC2"},{"bufferView":23,"componentType":5123,"count":156,"max":[103],"min":[0],"type":"SCALAR"},{"bufferView":24,"componentType":5126,"count":5,"max":[1],"min":[0],"type":"SCALAR"},{"bufferView":25,"componentType":5126,"count":5,"max":[0,0.0004758892173413187,0.021809693425893784,1],"min":[-0.021809693425893784,-0.0004758892173413187,-0.021809693425893784,0.9995241165161133],"type":"VEC4"},{"bufferView":26,"componentType":5126,"count":2,"max":[1],"min":[0],"type":"SCALAR"},{"bufferView":27,"componentType":5126,"count":2,"max":[0,10,0],"min":[0,10,0],"type":"VEC3"},{"bufferView":28,"componentType":5126,"count":18,"max":[1.0416666269302368],"min":[0],"type":"SCALAR"},{"bufferView":29,"componentType":5126,"count":18,"max":[0.16778843104839325,0,0,1],"min":[-0.16778843104839325,0,0,0.9858230352401733],"type":"VEC4"},{"bufferView":30,"componentType":5126,"count":6,"max":[1.0416699647903442],"min":[0],"type":"SCALAR"},{"bufferView":31,"componentType":5126,"count":6,"max":[-4.123839855194092,4.225261688232422,-0.2492000013589859],"min":[-4.923840045928955,4.225261688232422,-0.2492000013589859],"type":"VEC3"},{"bufferView":32,"componentType":5126,"count":18,"max":[1.0416666269302368],"min":[0],"type":"SCALAR"},{"bufferView":33,"componentType":5126,"count":18,"max":[0.16778843104839325,0,0,1],"min":[-0.16778843104839325,0,0,0.9858230352401733],"type":"VEC4"},{"bufferView":34,"componentType":5126,"count":6,"max":[1.0416699647903442],"min":[0],"type":"SCALAR"},{"bufferView":35,"componentType":5126,"count":6,"max":[4.876160144805908,5.225261688232422,-0.2492000013589859],"min":[4.076159954071045,5.225261688232422,-0.2492000013589859],"type":"VEC3"},{"bufferView":36,"componentType":5126,"count":18,"max":[1.0416699647903442],"min":[0],"type":"SCALAR"},{"bufferView":37,"componentType":5126,"count":18,"max":[0.02336285449564457,0,0,1],"min":[-0.2870147228240967,0,0,0.9579261541366577],"type":"VEC4"},{"bufferView":38,"componentType":5126,"count":6,"max":[1.0416699647903442],"min":[0],"type":"SCALAR"},{"bufferView":39,"componentType":5126,"count":6,"max":[-2.5,10,0.5],"min":[-2.5,9,-1.5],"type":"VEC3"},{"bufferView":40,"componentType":5126,"count":17,"max":[1.0416699647903442],"min":[0],"type":"SCALAR"},{"bufferView":41,"componentType":5126,"count":17,"max":[0.08803906291723251,0,0,1],"min":[-0.14820396900177002,0,0,0.9889568090438843],"type":"VEC4"},{"bufferView":42,"componentType":5126,"count":6,"max":[1.0416699647903442],"min":[0],"type":"SCALAR"},{"bufferView":43,"componentType":5126,"count":6,"max":[2.5,9.927720069885254,0.4507400095462799],"min":[2.5,8.927720069885254,-1.5492600202560425],"type":"VEC3"}],"materials":[{"pbrMetallicRoughness":{"metallicFactor":0,"roughnessFactor":1,"baseColorTexture":{"index":0}},"alphaMode":"MASK","alphaCutoff":0.05,"doubleSided":true}],"textures":[{"sampler":0,"source":0,"name":"fast_infantry_bot.png"}],"samplers":[{"magFilter":9728,"minFilter":9728,"wrapS":33071,"wrapT":33071}],"images":[{"mimeType":"image/png","name":"fast_infantry_bot.png","uri":"fast_infantry_bot.png"}],"meshes":[{"primitives":[{"mode":4,"attributes":{"POSITION":0,"NORMAL":1,"TEXCOORD_0":2},"indices":3,"material":0}]},{"primitives":[{"mode":4,"attributes":{"POSITION":4,"NORMAL":5,"TEXCOORD_0":6},"indices":7,"material":0}]},{"primitives":[{"mode":4,"attributes":{"POSITION":8,"NORMAL":9,"TEXCOORD_0":10},"indices":11,"material":0}]},{"primitives":[{"mode":4,"attributes":{"POSITION":12,"NORMAL":13,"TEXCOORD_0":14},"indices":15,"material":0}]},{"primitives":[{"mode":4,"attributes":{"POSITION":16,"NORMAL":17,"TEXCOORD_0":18},"indices":19,"material":0}]},{"primitives":[{"mode":4,"attributes":{"POSITION":20,"NORMAL":21,"TEXCOORD_0":22},"indices":23,"material":0}]}],"animations":[{"name":"animation","samplers":[{"input":24,"output":25,"interpolation":"LINEAR"},{"input":26,"output":27,"interpolation":"LINEAR"},{"input":28,"output":29,"interpolation":"LINEAR"},{"input":30,"output":31,"interpolation":"LINEAR"},{"input":32,"output":33,"interpolation":"LINEAR"},{"input":34,"output":35,"interpolation":"LINEAR"},{"input":36,"output":37,"interpolation":"LINEAR"},{"input":38,"output":39,"interpolation":"LINEAR"},{"input":40,"output":41,"interpolation":"LINEAR"},{"input":42,"output":43,"interpolation":"LINEAR"}],"channels":[{"sampler":0,"target":{"node":6,"path":"rotation"}},{"sampler":1,"target":{"node":6,"path":"translation"}},{"sampler":2,"target":{"node":2,"path":"rotation"}},{"sampler":3,"target":{"node":2,"path":"translation"}},{"sampler":4,"target":{"node":4,"path":"rotation"}},{"sampler":5,"target":{"node":4,"path":"translation"}},{"sampler":6,"target":{"node":9,"path":"rotation"}},{"sampler":7,"target":{"node":9,"path":"translation"}},{"sampler":8,"target":{"node":11,"path":"rotation"}},{"sampler":9,"target":{"node":11,"path":"translation"}}]}]}