{"asset":{"version":"2.0","generator":"Blockbench 4.12.6 glTF exporter"},"scenes":[{"nodes":[11],"name":"blockbench_export"}],"scene":0,"nodes":[{"translation":[0,0.2777777777777778,0.2777777777777778],"name":"cube","mesh":0},{"translation":[0,11.11111111111111,0],"name":"torso","children":[0]},{"translation":[-0.027022222222222603,-0.5555555555555556,-0.2777777777777778],"name":"cube","mesh":1},{"translation":[-5,22.22222222222222,0],"name":"left_arm","children":[2]},{"translation":[0,-0.5555555555555556,-0.23273333333333335],"name":"cube","mesh":2},{"translation":[4.9729777777777775,22.22222222222222,-0.04504444444444445],"name":"right_arm","children":[4]},{"rotation":[6.123233995736766e-17,1,-6.123233995736766e-17,3.749399456654644e-33],"translation":[-0.2777777777777778,0.5555555555555556,-0.7213999999999999],"name":"cuboid","mesh":3},{"translation":[-2.7777777777777777,11.11111111111111,0],"name":"left_leg","children":[6]},{"rotation":[6.123233995736766e-17,-1,6.123233995736766e-17,3.749399456654644e-33],"translation":[0.2777777777777778,-0.4752444444444443,-0.11111111111111109],"name":"cuboid","mesh":4},{"translation":[2.7777777777777777,12.141911111111112,-0.6102888888888889],"name":"right_leg","children":[8]},{"translation":[0,-4.444444444444445,0],"name":"root","children":[1,3,5,7,9]},{"children":[10]}],"bufferViews":[{"buffer":0,"byteOffset":0,"byteLength":2016,"target":34962,"byteStride":12},{"buffer":0,"byteOffset":2016,"byteLength":2016,"target":34962,"byteStride":12},{"buffer":0,"byteOffset":4032,"byteLength":1344,"target":34962,"byteStride":8},{"buffer":0,"byteOffset":5376,"byteLength":504,"target":34963},{"buffer":0,"byteOffset":5880,"byteLength":1008,"target":34962,"byteStride":12},{"buffer":0,"byteOffset":6888,"byteLength":1008,"target":34962,"byteStride":12},{"buffer":0,"byteOffset":7896,"byteLength":672,"target":34962,"byteStride":8},{"buffer":0,"byteOffset":8568,"byteLength":252,"target":34963},{"buffer":0,"byteOffset":8820,"byteLength":1008,"target":34962,"byteStride":12},{"buffer":0,"byteOffset":9828,"byteLength":1008,"target":34962,"byteStride":12},{"buffer":0,"byteOffset":10836,"byteLength":672,"target":34962,"byteStride":8},{"buffer":0,"byteOffset":11508,"byteLength":252,"target":34963},{"buffer":0,"byteOffset":11760,"byteLength":1248,"target":34962,"byteStride":12},{"buffer":0,"byteOffset":13008,"byteLength":1248,"target":34962,"byteStride":12},{"buffer":0,"byteOffset":14256,"byteLength":832,"target":34962,"byteStride":8},{"buffer":0,"byteOffset":15088,"byteLength":312,"target":34963},{"buffer":0,"byteOffset":15400,"byteLength":1248,"target":34962,"byteStride":12},{"buffer":0,"byteOffset":16648,"byteLength":1248,"target":34962,"byteStride":12},{"buffer":0,"byteOffset":17896,"byteLength":832,"target":34962,"byteStride":8},{"buffer":0,"byteOffset":18728,"byteLength":312,"target":34963},{"buffer":0,"byteOffset":19040,"byteLength":20},{"buffer":0,"byteOffset":19060,"byteLength":80},{"buffer":0,"byteOffset":19140,"byteLength":8},{"buffer":0,"byteOffset":19148,"byteLength":24},{"buffer":0,"byteOffset":19172,"byteLength":64},{"buffer":0,"byteOffset":19236,"byteLength":256},{"buffer":0,"byteOffset":19492,"byteLength":20},{"buffer":0,"byteOffset":19512,"byteLength":60},{"buffer":0,"byteOffset":19572,"byteLength":64},{"buffer":0,"byteOffset":19636,"byteLength":256},{"buffer":0,"byteOffset":19892,"byteLength":20},{"buffer":0,"byteOffset":19912,"byteLength":60},{"buffer":0,"byteOffset":19972,"byteLength":68},{"buffer":0,"byteOffset":20040,"byteLength":272},{"buffer":0,"byteOffset":20312,"byteLength":20},{"buffer":0,"byteOffset":20332,"byteLength":60},{"buffer":0,"byteOffset":20392,"byteLength":64},{"buffer":0,"byteOffset":20456,"byteLength":256},{"buffer":0,"byteOffset":20712,"byteLength":20},{"buffer":0,"byteOffset":20732,"byteLength":60}],"buffers":[{"byteLength":20792,"uri":"data:application/octet-stream;base64,"}],"accessors":[{"bufferView":0,"componentType":5126,"count":168,"max":[3.3333332538604736,11.11111068725586,2.777777671813965],"min":[-3.3333332538604736,0,-3.8888888359069824],"type":"VEC3"},{"bufferView":1,"componentType":5126,"count":168,"max":[1,1,1],"min":[-1,-1,-1],"type":"VEC3"},{"bufferView":2,"componentType":5126,"count":168,"max":[0.8046875,0.84375],"min":[0,0],"type":"VEC2"},{"bufferView":3,"componentType":5123,"count":252,"max":[167],"min":[0],"type":"SCALAR"},{"bufferView":4,"componentType":5126,"count":84,"max":[1.6936888694763184,0.7807778120040894,1.711711049079895],"min":[-1.6396443843841553,-7.830333232879639,-6.899399757385254],"type":"VEC3"},{"bufferView":5,"componentType":5126,"count":84,"max":[1,1,1],"min":[-1,-1,-1],"type":"VEC3"},{"bufferView":6,"componentType":5126,"count":84,"max":[0.6875,1],"min":[0,0.09375],"type":"VEC2"},{"bufferView":7,"componentType":5123,"count":126,"max":[83],"min":[0],"type":"SCALAR"},{"bufferView":8,"componentType":5126,"count":84,"max":[1.6936888694763184,0.7807778120040894,1.711711049079895],"min":[-1.6396443843841553,-7.830333232879639,-6.899399757385254],"type":"VEC3"},{"bufferView":9,"componentType":5126,"count":84,"max":[1,1,1],"min":[-1,-1,-1],"type":"VEC3"},{"bufferView":10,"componentType":5126,"count":84,"max":[0.6875,1],"min":[0,0.2109375],"type":"VEC2"},{"bufferView":11,"componentType":5123,"count":126,"max":[83],"min":[0],"type":"SCALAR"},{"bufferView":12,"componentType":5126,"count":104,"max":[1.3888888359069824,1.135866641998291,1.9174888134002686],"min":[-1.3888888359069824,-7.1974663734436035,-5.026955604553223],"type":"VEC3"},{"bufferView":13,"componentType":5126,"count":104,"max":[1,1,1],"min":[-1,-1,-1],"type":"VEC3"},{"bufferView":14,"componentType":5126,"count":104,"max":[0.6364136934280396,1.0039561986923218],"min":[0,0],"type":"VEC2"},{"bufferView":15,"componentType":5123,"count":156,"max":[103],"min":[0],"type":"SCALAR"},{"bufferView":16,"componentType":5126,"count":104,"max":[1.3888888359069824,1.135866641998291,1.9174888134002686],"min":[-1.3888888359069824,-7.1974663734436035,-5.026955604553223],"type":"VEC3"},{"bufferView":17,"componentType":5126,"count":104,"max":[1,1,1],"min":[-1,-1,-1],"type":"VEC3"},{"bufferView":18,"componentType":5126,"count":104,"max":[0.6364136934280396,1.0039561986923218],"min":[0,0],"type":"VEC2"},{"bufferView":19,"componentType":5123,"count":156,"max":[103],"min":[0],"type":"SCALAR"},{"bufferView":20,"componentType":5126,"count":5,"max":[1],"min":[0],"type":"SCALAR"},{"bufferView":21,"componentType":5126,"count":5,"max":[0,0.0004758892173413187,0.021809693425893784,1],"min":[-0.021809693425893784,-0.0004758892173413187,-0.021809693425893784,0.9995241165161133],"type":"VEC4"},{"bufferView":22,"componentType":5126,"count":2,"max":[1],"min":[0],"type":"SCALAR"},{"bufferView":23,"componentType":5126,"count":2,"max":[0,11.11111068725586,0],"min":[0,11.11111068725586,0],"type":"VEC3"},{"bufferView":24,"componentType":5126,"count":16,"max":[0.9583333134651184],"min":[0],"type":"SCALAR"},{"bufferView":25,"componentType":5126,"count":16,"max":[0.06317759305238724,0,0,1],"min":[-0.06317759305238724,0,0,0.998002290725708],"type":"VEC4"},{"bufferView":26,"componentType":5126,"count":5,"max":[1],"min":[0],"type":"SCALAR"},{"bufferView":27,"componentType":5126,"count":5,"max":[-4.55555534362793,22.22222137451172,0],"min":[-5.44444465637207,22.22222137451172,0],"type":"VEC3"},{"bufferView":28,"componentType":5126,"count":16,"max":[0.9583333134651184],"min":[0],"type":"SCALAR"},{"bufferView":29,"componentType":5126,"count":16,"max":[0.06317759305238724,0,0,1],"min":[-0.06317759305238724,0,0,0.998002290725708],"type":"VEC4"},{"bufferView":30,"componentType":5126,"count":5,"max":[1],"min":[0],"type":"SCALAR"},{"bufferView":31,"componentType":5126,"count":5,"max":[5.417422294616699,22.22222137451172,-0.045044444501399994],"min":[4.528533458709717,22.22222137451172,-0.045044444501399994],"type":"VEC3"},{"bufferView":32,"componentType":5126,"count":17,"max":[1],"min":[0],"type":"SCALAR"},{"bufferView":33,"componentType":5126,"count":17,"max":[0.02336285449564457,0,0,1],"min":[-0.2870147228240967,0,0,0.9579261541366577],"type":"VEC4"},{"bufferView":34,"componentType":5126,"count":5,"max":[1],"min":[0],"type":"SCALAR"},{"bufferView":35,"componentType":5126,"count":5,"max":[-2.777777671813965,12.222222328186035,1.1111111640930176],"min":[-2.777777671813965,11.11111068725586,-1.1111111640930176],"type":"VEC3"},{"bufferView":36,"componentType":5126,"count":16,"max":[1],"min":[0],"type":"SCALAR"},{"bufferView":37,"componentType":5126,"count":16,"max":[0.08803906291723251,0,0,1],"min":[-0.14820396900177002,0,0,0.9889568090438843],"type":"VEC4"},{"bufferView":38,"componentType":5126,"count":5,"max":[1],"min":[0],"type":"SCALAR"},{"bufferView":39,"componentType":5126,"count":5,"max":[2.777777671813965,13.253022193908691,0.5008222460746765],"min":[2.777777671813965,12.141911506652832,-1.7214000225067139],"type":"VEC3"}],"materials":[{"pbrMetallicRoughness":{"metallicFactor":0,"roughnessFactor":1,"baseColorTexture":{"index":0}},"alphaMode":"MASK","alphaCutoff":0.05,"doubleSided":true}],"textures":[{"sampler":0,"source":0,"name":"fast_infantry_bot.png"}],"samplers":[{"magFilter":9728,"minFilter":9728,"wrapS":33071,"wrapT":33071}],"images":[{"mimeType":"image/png","name":"fast_infantry_bot.png","uri":"fast_infantry_bot.png"}],"meshes":[{"primitives":[{"mode":4,"attributes":{"POSITION":0,"NORMAL":1,"TEXCOORD_0":2},"indices":3,"material":0}]},{"primitives":[{"mode":4,"attributes":{"POSITION":4,"NORMAL":5,"TEXCOORD_0":6},"indices":7,"material":0}]},{"primitives":[{"mode":4,"attributes":{"POSITION":8,"NORMAL":9,"TEXCOORD_0":10},"indices":11,"material":0}]},{"primitives":[{"mode":4,"attributes":{"POSITION":12,"NORMAL":13,"TEXCOORD_0":14},"indices":15,"material":0}]},{"primitives":[{"mode":4,"attributes":{"POSITION":16,"NORMAL":17,"TEXCOORD_0":18},"indices":19,"material":0}]}],"animations":[{"name":"animation","samplers":[{"input":20,"output":21,"interpolation":"LINEAR"},{"input":22,"output":23,"interpolation":"LINEAR"},{"input":24,"output":25,"interpolation":"LINEAR"},{"input":26,"output":27,"interpolation":"LINEAR"},{"input":28,"output":29,"interpolation":"LINEAR"},{"input":30,"output":31,"interpolation":"LINEAR"},{"input":32,"output":33,"interpolation":"LINEAR"},{"input":34,"output":35,"interpolation":"LINEAR"},{"input":36,"output":37,"interpolation":"LINEAR"},{"input":38,"output":39,"interpolation":"LINEAR"}],"channels":[{"sampler":0,"target":{"node":1,"path":"rotation"}},{"sampler":1,"target":{"node":1,"path":"translation"}},{"sampler":2,"target":{"node":3,"path":"rotation"}},{"sampler":3,"target":{"node":3,"path":"translation"}},{"sampler":4,"target":{"node":5,"path":"rotation"}},{"sampler":5,"target":{"node":5,"path":"translation"}},{"sampler":6,"target":{"node":7,"path":"rotation"}},{"sampler":7,"target":{"node":7,"path":"translation"}},{"sampler":8,"target":{"node":9,"path":"rotation"}},{"sampler":9,"target":{"node":9,"path":"translation"}}]}]}