{
  "asset": {
    "version": "2.0",
    "generator": "Blockbench 4.12.6 glTF exporter"
  },
  "scenes": [
    {
      "nodes": [
        8
      ],
      "name": "blockbench_export"
    }
  ],
  "scene": 0,
  "nodes": [
    {
      "translation": [
        0,
        8.333333333333332,
        0
      ],
      "name": "cuboid",
      "mesh": 0
    },
    {
      "translation": [
        -5.333333333333333,
        0,
        0
      ],
      "name": "cube",
      "mesh": 1
    },
    {
      "translation": [
        0,
        10,
        1.3333333333333333
      ],
      "name": "left_leg",
      "children": [
        1
      ]
    },
    {
      "translation": [
        5.333333333333333,
        0,
        0.3333333333333333
      ],
      "name": "cube",
      "mesh": 2
    },
    {
      "translation": [
        0,
        10,
        1
      ],
      "name": "right_leg",
      "children": [
        3
      ]
    },
    {
      "translation": [
        0,
        4.333333333333333,
        0
      ],
      "name": "legs",
      "children": [
        2,
        4
      ]
    },
    {
      "translation": [
        0,
        -1.6666666666666665,
        0
      ],
      "name": "torso",
      "children": [
        0,
        5
      ]
    },
    {
      "translation": [
        0,
        -2.6666666666666665,
        0
      ],
      "name": "root",
      "children": [
        6
      ]
    },
    {
      "children": [
        7
      ]
    }
  ],
  "bufferViews": [
    {
      "buffer": 0,
      "byteOffset": 0,
      "byteLength": 2160,
      "target": 34962,
      "byteStride": 12
    },
    {
      "buffer": 0,
      "byteOffset": 2160,
      "byteLength": 2160,
      "target": 34962,
      "byteStride": 12
    },
    {
      "buffer": 0,
      "byteOffset": 4320,
      "byteLength": 1440,
      "target": 34962,
      "byteStride": 8
    },
    {
      "buffer": 0,
      "byteOffset": 5760,
      "byteLength": 540,
      "target": 34963
    },
    {
      "buffer": 0,
      "byteOffset": 6300,
      "byteLength": 1248,
      "target": 34962,
      "byteStride": 12
    },
    {
      "buffer": 0,
      "byteOffset": 7548,
      "byteLength": 1248,
      "target": 34962,
      "byteStride": 12
    },
    {
      "buffer": 0,
      "byteOffset": 8796,
      "byteLength": 832,
      "target": 34962,
      "byteStride": 8
    },
    {
      "buffer": 0,
      "byteOffset": 9628,
      "byteLength": 312,
      "target": 34963
    },
    {
      "buffer": 0,
      "byteOffset": 9940,
      "byteLength": 1248,
      "target": 34962,
      "byteStride": 12
    },
    {
      "buffer": 0,
      "byteOffset": 11188,
      "byteLength": 1248,
      "target": 34962,
      "byteStride": 12
    },
    {
      "buffer": 0,
      "byteOffset": 12436,
      "byteLength": 832,
      "target": 34962,
      "byteStride": 8
    },
    {
      "buffer": 0,
      "byteOffset": 13268,
      "byteLength": 312,
      "target": 34963
    }
  ],
  "buffers": [
    {
      "byteLength": 13580,
      "uri": "data:application/octet-stream;base64,"
    }
  ],
  "accessors": [
    {
      "bufferView": 0,
      "componentType": 5126,
      "count": 180,
      "max": [
        4,
        14,
        7.333333492279053
      ],
      "min": [
        -4,
        1.3333333730697632,
        -4
      ],
      "type": "VEC3"
    },
    {
      "bufferView": 1,
      "componentType": 5126,
      "count": 180,
      "max": [
        1,
        1,
        1
      ],
      "min": [
        -1,
        -1,
        -1
      ],
      "type": "VEC3"
    },
    {
      "bufferView": 2,
      "componentType": 5126,
      "count": 180,
      "max": [
        0.6953125,
        0.890625
      ],
      "min": [
        0,
        0
      ],
      "type": "VEC2"
    },
    {
      "bufferView": 3,
      "componentType": 5123,
      "count": 270,
      "max": [
        179
      ],
      "min": [
        0
      ],
      "type": "SCALAR"
    },
    {
      "bufferView": 4,
      "componentType": 5126,
      "count": 104,
      "max": [
        1.3333333730697632,
        1.9895466566085815,
        5.9771199226379395
      ],
      "min": [
        -1.3333333730697632,
        -10.010453224182129,
        -3.356213331222534
      ],
      "type": "VEC3"
    },
    {
      "bufferView": 5,
      "componentType": 5126,
      "count": 104,
      "max": [
        1,
        1,
        1
      ],
      "min": [
        -1,
        -1,
        -1
      ],
      "type": "VEC3"
    },
    {
      "bufferView": 6,
      "componentType": 5126,
      "count": 104,
      "max": [
        1,
        0.484375
      ],
      "min": [
        0.5625,
        0.0006009340286254883
      ],
      "type": "VEC2"
    },
    {
      "bufferView": 7,
      "componentType": 5123,
      "count": 156,
      "max": [
        103
      ],
      "min": [
        0
      ],
      "type": "SCALAR"
    },
    {
      "bufferView": 8,
      "componentType": 5126,
      "count": 104,
      "max": [
        1.3333333730697632,
        1.9895466566085815,
        5.9771199226379395
      ],
      "min": [
        -1.3333333730697632,
        -10.010453224182129,
        -3.356213331222534
      ],
      "type": "VEC3"
    },
    {
      "bufferView": 9,
      "componentType": 5126,
      "count": 104,
      "max": [
        1,
        1,
        1
      ],
      "min": [
        -1,
        -1,
        -1
      ],
      "type": "VEC3"
    },
    {
      "bufferView": 10,
      "componentType": 5126,
      "count": 104,
      "max": [
        1,
        0.484375
      ],
      "min": [
        0.5625,
        0
      ],
      "type": "VEC2"
    },
    {
      "bufferView": 11,
      "componentType": 5123,
      "count": 156,
      "max": [
        103
      ],
      "min": [
        0
      ],
      "type": "SCALAR"
    }
  ],
  "materials": [
    {
      "pbrMetallicRoughness": {
        "metallicFactor": 0,
        "roughnessFactor": 1,
        "baseColorFactor": [
          0.8,
          0.8,
          0.8,
          1
        ]
      },
      "alphaMode": "MASK",
      "alphaCutoff": 0.05,
      "doubleSided": true
    },
    {
      "pbrMetallicRoughness": {
        "metallicFactor": 0,
        "roughnessFactor": 1,
        "baseColorFactor": [
          0.8,
          0.8,
          0.8,
          1
        ]
      },
      "alphaMode": "MASK",
      "alphaCutoff": 0.05,
      "doubleSided": true
    }
  ],
  "meshes": [
    {
      "primitives": [
        {
          "mode": 4,
          "attributes": {
            "POSITION": 0,
            "NORMAL": 1,
            "TEXCOORD_0": 2
          },
          "indices": 3,
          "material": 0
        }
      ]
    },
    {
      "primitives": [
        {
          "mode": 4,
          "attributes": {
            "POSITION": 4,
            "NORMAL": 5,
            "TEXCOORD_0": 6
          },
          "indices": 7,
          "material": 1
        }
      ]
    },
    {
      "primitives": [
        {
          "mode": 4,
          "attributes": {
            "POSITION": 8,
            "NORMAL": 9,
            "TEXCOORD_0": 10
          },
          "indices": 11,
          "material": 1
        }
      ]
    }
  ]
}